<?xml version="1.0" encoding="UTF-8"?>
<!DOCTYPE svg PUBLIC "-//W3C//DTD SVG 1.1//EN" "http://www.w3.org/Graphics/SVG/1.1/DTD/svg11.dtd">
<svg xmlns="http://www.w3.org/2000/svg" version="1.1" width="90px" height="90px" style="shape-rendering:geometricPrecision; text-rendering:geometricPrecision; image-rendering:optimizeQuality; fill-rule:evenodd; clip-rule:evenodd" xmlns:xlink="http://www.w3.org/1999/xlink">
<g><path style="opacity:0.951" fill="#fffcfc" d="M 41.5,5.5 C 43.5273,5.33788 45.5273,5.50454 47.5,6C 48.3978,8.39986 50.0645,9.89986 52.5,10.5C 58.9314,6.89714 62.2647,8.89714 62.5,16.5C 65.3819,17.772 68.2152,19.1053 71,20.5C 71.5426,23.1698 71.0426,25.6698 69.5,28C 70.3204,30.1538 71.8204,31.6538 74,32.5C 74.6667,34.5 74.6667,36.5 74,38.5C 71.6001,39.3978 70.1001,41.0645 69.5,43.5C 73.1029,49.9314 71.1029,53.2647 63.5,53.5C 62.228,56.3819 60.8947,59.2152 59.5,62C 56.9238,62.6058 54.5904,62.1058 52.5,60.5C 50.0645,61.1001 48.3978,62.6001 47.5,65C 45.5,65.6667 43.5,65.6667 41.5,65C 40.6022,62.6001 38.9355,61.1001 36.5,60.5C 30.0686,64.1029 26.7353,62.1029 26.5,54.5C 23.6181,53.228 20.7848,51.8947 18,50.5C 17.3942,47.9238 17.8942,45.5904 19.5,43.5C 18.8999,41.0645 17.3999,39.3978 15,38.5C 14.3333,36.5 14.3333,34.5 15,32.5C 20.0143,30.2817 20.8476,26.9484 17.5,22.5C 17.6799,21.4461 18.0133,20.4461 18.5,19.5C 20.813,18.7267 23.1463,18.0601 25.5,17.5C 26.772,14.6181 28.1053,11.7848 29.5,9C 32.5,9.33333 35.5,9.66667 38.5,10C 39.8825,8.72917 40.8825,7.22917 41.5,5.5 Z"/></g>
<g><path style="opacity:0.901" fill="#fffcfc" d="M 16.5,56.5 C 18.4352,57.1495 20.4352,57.4828 22.5,57.5C 22.6245,63.1252 25.4578,66.4585 31,67.5C 33.1537,66.7479 35.3203,66.5812 37.5,67C 32,72.5 26.5,78 21,83.5C 20.5007,78.5111 20.3341,73.5111 20.5,68.5C 15.4889,68.6659 10.4889,68.4993 5.5,68C 9.37046,64.2977 13.0371,60.4643 16.5,56.5 Z"/></g>
<g><path style="opacity:0.901" fill="#fffcfc" d="M 70.5,56.5 C 75.2391,59.7308 79.5724,63.5642 83.5,68C 78.5111,68.4993 73.5111,68.6659 68.5,68.5C 68.6659,73.5111 68.4993,78.5111 68,83.5C 62.5,78 57,72.5 51.5,67C 57.8394,69.0048 62.6728,67.1715 66,61.5C 66.49,60.2068 66.6567,58.8734 66.5,57.5C 68.099,57.7678 69.4324,57.4345 70.5,56.5 Z"/></g>
</svg>
