<?xml version="1.0" encoding="UTF-8"?>
<!DOCTYPE svg PUBLIC "-//W3C//DTD SVG 1.1//EN" "http://www.w3.org/Graphics/SVG/1.1/DTD/svg11.dtd">
<svg xmlns="http://www.w3.org/2000/svg" version="1.1" width="100px" height="100px" style="shape-rendering:geometricPrecision; text-rendering:geometricPrecision; image-rendering:optimizeQuality; fill-rule:evenodd; clip-rule:evenodd" xmlns:xlink="http://www.w3.org/1999/xlink">
<g><path style="opacity:0.775" fill="#fffdfd" d="M 41.5,5.5 C 51.6555,3.38032 60.1555,6.04699 67,13.5C 68.7497,16.2464 69.7497,19.2464 70,22.5C 69.6862,28.3544 69.8529,34.1878 70.5,40C 68.014,48.1381 63.8473,55.3047 58,61.5C 56.8837,57.7115 57.5504,54.3782 60,51.5C 60.8221,49.2115 61.4888,46.8782 62,44.5C 65.8967,42.3978 66.3967,39.7311 63.5,36.5C 66.6742,28.9039 66.0075,21.7372 61.5,15C 58.8162,14.2223 56.4828,12.8889 54.5,11C 48.7836,9.83358 43.4503,10.6669 38.5,13.5C 36.7026,15.1311 35.5359,17.1311 35,19.5C 35.0698,27.5356 34.9032,35.5356 34.5,43.5C 35.5,43.5 36.5,43.5 37.5,43.5C 37.3385,47.8441 38.8385,51.5107 42,54.5C 42.3333,56.8333 42.6667,59.1667 43,61.5C 45.4281,62.63 47.5947,64.13 49.5,66C 46.931,68.4794 44.5977,71.146 42.5,74C 41.0039,74.5074 39.8373,74.0074 39,72.5C 37.8783,70.3762 36.3783,68.5429 34.5,67C 37.1941,64.3466 38.0274,61.1799 37,57.5C 34.6667,53.1667 32.3333,48.8333 30,44.5C 29.8311,35.8999 29.8311,27.2332 30,18.5C 31.5893,12.0828 35.4227,7.74947 41.5,5.5 Z"/></g>
<g><path style="opacity:0.909" fill="#fffdfd" d="M 99.5,72.5 C 99.5,75.8333 99.5,79.1667 99.5,82.5C 97.0225,82.0508 95.0225,82.7175 93.5,84.5C 94.7474,86.4971 95.5808,88.4971 96,90.5C 94,92.5 92,94.5 90,96.5C 84.9977,91.7746 82.4977,92.7746 82.5,99.5C 79.1667,99.5 75.8333,99.5 72.5,99.5C 72.5,97.5 72.5,95.5 72.5,93.5C 69.5253,93.3069 67.0253,94.3069 65,96.5C 62.6496,94.3171 60.483,91.9837 58.5,89.5C 60.3274,87.5128 61.3274,85.1795 61.5,82.5C 59.5,82.5 57.5,82.5 55.5,82.5C 55.5,79.1667 55.5,75.8333 55.5,72.5C 57.5,72.1667 59.5,71.8333 61.5,71.5C 60.3169,68.8652 59.4836,66.1985 59,63.5C 60.7194,61.4429 62.7194,59.7763 65,58.5C 66.9716,60.0781 69.1383,60.9115 71.5,61C 72.4061,59.3005 72.7394,57.4672 72.5,55.5C 75.8333,55.5 79.1667,55.5 82.5,55.5C 82.2948,61.3214 84.2948,62.4881 88.5,59C 92.0025,59.293 94.6692,61.1264 96.5,64.5C 95.6198,66.4292 94.6198,68.2626 93.5,70C 94.9442,72.0345 96.9442,72.8678 99.5,72.5 Z M 74.5,72.5 C 82.4863,71.998 84.4863,75.1647 80.5,82C 72.424,82.8047 70.424,79.638 74.5,72.5 Z"/></g>
<g><path style="opacity:0.928" fill="#fffdfd" d="M 29.5,68.5 C 30.552,68.3505 31.552,68.5172 32.5,69C 35.6246,72.1129 38.6246,75.2796 41.5,78.5C 43.5,76.8333 45.5,75.1667 47.5,73.5C 48.3081,73.8076 48.9747,74.3076 49.5,75C 46.3188,80.0433 44.6522,85.5433 44.5,91.5C 32.8333,91.5 21.1667,91.5 9.5,91.5C 8.82169,84.6963 11.155,79.1963 16.5,75C 20.9252,72.7874 25.2585,70.6207 29.5,68.5 Z"/></g>
</svg>
