<?xml version="1.0" encoding="UTF-8"?>
<!DOCTYPE svg PUBLIC "-//W3C//DTD SVG 1.1//EN" "http://www.w3.org/Graphics/SVG/1.1/DTD/svg11.dtd">
<svg xmlns="http://www.w3.org/2000/svg" version="1.1" width="96px" height="96px" style="shape-rendering:geometricPrecision; text-rendering:geometricPrecision; image-rendering:optimizeQuality; fill-rule:evenodd; clip-rule:evenodd" xmlns:xlink="http://www.w3.org/1999/xlink">
<g><path style="opacity:0.97" fill="#fffcfc" d="M 16.5,11.5 C 25.2756,11.0592 33.9422,11.5592 42.5,13C 43.7014,13.9025 44.5348,15.0692 45,16.5C 45.8962,21.9491 45.5628,27.2825 44,32.5C 43.0975,33.7014 41.9308,34.5348 40.5,35C 31.7305,35.94 23.0638,35.6067 14.5,34C 13.2986,33.0975 12.4652,31.9308 12,30.5C 11.3333,25.8333 11.3333,21.1667 12,16.5C 13.025,14.313 14.525,12.6464 16.5,11.5 Z"/></g>
<g><path style="opacity:0.984" fill="#fffcfc" d="M 54.5,11.5 C 62.5069,11.3336 70.5069,11.5003 78.5,12C 79.9308,12.4652 81.0975,13.2986 82,14.5C 83.6245,26.4035 83.9579,38.4035 83,50.5C 82.5348,51.9308 81.7014,53.0975 80.5,54C 71.9362,55.6067 63.2695,55.94 54.5,55C 53.0692,54.5348 51.9025,53.7014 51,52.5C 49.3755,40.5965 49.0421,28.5965 50,16.5C 51.025,14.313 52.525,12.6464 54.5,11.5 Z"/></g>
<g><path style="opacity:0.984" fill="#fffcfc" d="M 16.5,39.5 C 24.5069,39.3336 32.5069,39.5003 40.5,40C 41.9308,40.4652 43.0975,41.2986 44,42.5C 45.6245,54.4035 45.9579,66.4035 45,78.5C 44.5348,79.9308 43.7014,81.0975 42.5,82C 33.9362,83.6067 25.2695,83.94 16.5,83C 15.0692,82.5348 13.9025,81.7014 13,80.5C 11.3755,68.5965 11.0421,56.5965 12,44.5C 13.025,42.313 14.525,40.6464 16.5,39.5 Z"/></g>
<g><path style="opacity:0.97" fill="#fffcfc" d="M 54.5,59.5 C 63.2756,59.0592 71.9422,59.5592 80.5,61C 81.7014,61.9025 82.5348,63.0692 83,64.5C 83.8962,69.9491 83.5628,75.2825 82,80.5C 81.0975,81.7014 79.9308,82.5348 78.5,83C 69.7305,83.94 61.0638,83.6067 52.5,82C 51.2986,81.0975 50.4652,79.9308 50,78.5C 49.3333,73.8333 49.3333,69.1667 50,64.5C 51.025,62.313 52.525,60.6464 54.5,59.5 Z"/></g>
</svg>
