<?xml version="1.0" encoding="UTF-8"?>
<!DOCTYPE svg PUBLIC "-//W3C//DTD SVG 1.1//EN" "http://www.w3.org/Graphics/SVG/1.1/DTD/svg11.dtd">
<svg xmlns="http://www.w3.org/2000/svg" version="1.1" width="100px" height="100px" style="shape-rendering:geometricPrecision; text-rendering:geometricPrecision; image-rendering:optimizeQuality; fill-rule:evenodd; clip-rule:evenodd" xmlns:xlink="http://www.w3.org/1999/xlink">
<g><path style="opacity:0.908" fill="#fffcfc" d="M 28.5,3.5 C 40.3244,1.8236 45.1577,6.8236 43,18.5C 39.3449,23.2745 34.5116,24.7745 28.5,23C 23.7255,19.3449 22.2255,14.5116 24,8.5C 25.3657,6.63834 26.8657,4.97167 28.5,3.5 Z"/></g>
<g><path style="opacity:0.897" fill="#fffdfd" d="M 60.5,3.5 C 71.4903,1.99179 76.3236,6.65846 75,17.5C 71.7231,23.1088 66.8897,24.9422 60.5,23C 52.5548,16.5029 52.5548,10.0029 60.5,3.5 Z"/></g>
<g><path style="opacity:0.789" fill="#fffdfd" d="M 27.5,25.5 C 37.8258,22.9884 44.4925,26.6551 47.5,36.5C 41.4296,37.3991 37.263,40.7324 35,46.5C 34.6753,50.6701 34.5086,54.6701 34.5,58.5C 31.973,56.3946 29.6397,54.0613 27.5,51.5C 35.533,43.0381 35.1997,34.8715 26.5,27C 27.056,26.6174 27.3893,26.1174 27.5,25.5 Z"/></g>
<g><path style="opacity:0.796" fill="#fffdfd" d="M 59.5,25.5 C 63.1817,25.3347 66.8484,25.5014 70.5,26C 70.9574,26.414 71.2907,26.914 71.5,27.5C 66.8808,32.2901 65.3808,37.9567 67,44.5C 68.5289,47.2784 69.8623,49.945 71,52.5C 68.3568,53.9763 66.1901,55.9763 64.5,58.5C 66.2432,51.184 64.2432,44.684 58.5,39C 56.3496,37.5886 54.0163,36.7553 51.5,36.5C 51.973,31.2148 54.6397,27.5482 59.5,25.5 Z"/></g>
<g><path style="opacity:0.921" fill="#fffcfc" d="M 12.5,27.5 C 22.5421,25.5541 28.5421,29.5541 30.5,39.5C 28.4031,49.7048 22.4031,53.5381 12.5,51C 5.92982,47.3449 3.76315,41.8449 6,34.5C 7.69406,31.6424 9.86073,29.309 12.5,27.5 Z"/></g>
<g><path style="opacity:0.921" fill="#fffcfc" d="M 76.5,27.5 C 86.5421,25.5541 92.5421,29.5541 94.5,39.5C 92.4031,49.7048 86.4031,53.5381 76.5,51C 69.9298,47.3449 67.7632,41.8449 70,34.5C 71.6941,31.6424 73.8607,29.309 76.5,27.5 Z"/></g>
<g><path style="opacity:0.921" fill="#fffcfc" d="M 44.5,39.5 C 54.5421,37.5541 60.5421,41.5541 62.5,51.5C 60.4031,61.7048 54.4031,65.5381 44.5,63C 37.9298,59.3449 35.7632,53.8449 38,46.5C 39.6941,43.6424 41.8607,41.309 44.5,39.5 Z"/></g>
<g><path style="opacity:0.94" fill="#fffcfc" d="M -0.5,80.5 C -0.5,75.5 -0.5,70.5 -0.5,65.5C 5.13251,54.1112 14.1325,50.6112 26.5,55C 31.0457,57.5759 34.0457,61.4092 35.5,66.5C 31.2182,71.3928 28.8849,77.0595 28.5,83.5C 21.1591,83.6663 13.8258,83.4997 6.5,83C 3.96987,82.6207 1.63653,81.7874 -0.5,80.5 Z"/></g>
<g><path style="opacity:0.941" fill="#fffcfc" d="M 99.5,65.5 C 99.5,70.5 99.5,75.5 99.5,80.5C 97.3635,81.7874 95.0301,82.6207 92.5,83C 85.5,83.6667 78.5,83.6667 71.5,83C 70.5764,76.6528 67.9097,71.1528 63.5,66.5C 68.6892,54.2573 77.6892,50.424 90.5,55C 94.8112,57.5054 97.8112,61.0054 99.5,65.5 Z"/></g>
<g><path style="opacity:0.941" fill="#fffcfc" d="M 43.5,65.5 C 63.3278,64.6982 70.9945,73.8649 66.5,93C 54.9207,97.6226 43.4207,97.456 32,92.5C 28.8117,80.2346 32.645,71.2346 43.5,65.5 Z"/></g>
</svg>
