<?xml version="1.0" encoding="UTF-8"?>
<svg version="1.1" xmlns="http://www.w3.org/2000/svg" width="512" height="512">
<path d="M0 0 C22.77235086 1.94234757 43.41486935 9.22935297 65 17 C65 96.53 65 176.06 65 258 C60.87738989 257.31289832 57.78061962 256.69962938 53.97265625 255.328125 C26.83121333 245.78024405 -2.04486163 239.36053098 -31 241 C-32.17079102 241.06380859 -32.17079102 241.06380859 -33.36523438 241.12890625 C-54.2447754 242.40424235 -74.38280934 246.81132001 -94 254 C-99.445 255.98 -99.445 255.98 -105 258 C-105 239.85 -105 221.7 -105 203 C-100.05 202.01 -100.05 202.01 -95 201 C-90.71321214 198.85660607 -88.01134318 196.45175758 -85.7109375 192.19140625 C-84.80255807 189.39140153 -84.84890919 186.87572125 -84.8125 183.9375 C-84.55764218 178.55195196 -84.55764218 178.55195196 -82.0859375 176.10546875 C-80.49543763 175.12371068 -78.87582212 174.18754562 -77.23046875 173.30078125 C-73.12289282 170.90529476 -71.48427106 167.45281317 -70 163 C-69.82652141 160.67462558 -69.70276545 158.34543065 -69.60546875 156.015625 C-69.5365288 154.58980868 -69.46684097 153.16402837 -69.39648438 151.73828125 C-69.29054836 149.5143521 -69.18910367 147.29064145 -69.10131836 145.06591797 C-67.99422568 117.73707298 -56.62452434 99.40158809 -39.3215332 79.15136719 C-18.77382594 54.95560624 -5.72456785 31.33447668 0 0 Z " fill="#FFFFFF" transform="translate(368,185)"/>
<path d="M0 0 C0.226875 1.258125 0.45375 2.51625 0.6875 3.8125 C6.90171833 34.15502813 20.04103526 55.51825582 39.70263672 79.03662109 C57.9246809 100.88108831 68.07776118 120.04787115 69.00854492 148.95654297 C69.18869465 161.71760545 69.18869465 161.71760545 75.44506836 172.50244141 C77.54646337 174.3573704 79.51325184 175.82396088 82.16015625 176.78125 C82.76730469 177.1834375 83.37445313 177.585625 84 178 C84.43359375 180.5390625 84.43359375 180.5390625 84.4375 183.625 C84.76547845 189.57139189 85.77784541 193.67359468 90 198 C94.92386811 201.54064311 98.85689661 202.1224138 105 203 C105 221.15 105 239.3 105 258 C99.39 256.02 93.78 254.04 88 252 C69.63773678 245.78252938 50.44401248 241.56394992 31 241 C29.74058594 240.96003906 28.48117188 240.92007813 27.18359375 240.87890625 C-2.56072886 240.25408485 -32.36980752 246.45915624 -60.00390625 257.3359375 C-62 258 -62 258 -65 258 C-65 178.47 -65 98.94 -65 17 C-17.77777778 0 -17.77777778 0 0 0 Z " fill="#FFFFFF" transform="translate(144,185)"/>
<path d="M0 0 C0.00238835 1.16105633 0.00477671 2.32211266 0.00723743 3.51835251 C0.06457549 31.06860147 0.13729047 58.61877482 0.22898628 86.16893177 C0.24025468 89.55858435 0.2513931 92.94823735 0.26245117 96.33789062 C0.26465486 97.01272032 0.26685854 97.68755002 0.269129 98.3828291 C0.30451836 109.31501107 0.32937323 120.24719298 0.35034702 131.17941102 C0.37209605 142.3937179 0.40536113 153.60795045 0.44870156 164.82219815 C0.47268393 171.12241181 0.49137982 177.42254291 0.49761391 183.72280121 C0.50364209 189.64891165 0.52355964 195.57481071 0.55427551 201.50084305 C0.56309219 203.67932546 0.56677086 205.85783545 0.56500816 208.03633499 C0.56336453 211.00418614 0.5799769 213.97138588 0.60127258 216.93914795 C0.59642501 217.8068509 0.59157743 218.67455385 0.58658296 219.56855083 C0.62889494 223.12661483 0.66438778 225.3914829 2.40498638 228.54745865 C3.88417292 230.16217477 3.88417292 230.16217477 5.91894531 230.30151367 C11.91441347 229.41005725 17.16156107 227.62503098 22.75 225.3125 C58.97278575 210.98557728 100.51723455 204.42303518 139 213 C139.88059082 213.18804199 140.76118164 213.37608398 141.66845703 213.56982422 C157.77378493 217.09488032 173.23987169 222.61993585 188 230 C194.03477474 230.78141389 198.59502458 228.26143563 203.9375 225.8125 C228.19013262 215.1224278 252.75471148 209.77128947 279.25 209.75 C280.3834938 209.74898788 280.3834938 209.74898788 281.53988647 209.74795532 C293.92192592 209.76546974 305.84230315 210.50248863 318 213 C318.82081055 213.16097168 319.64162109 213.32194336 320.48730469 213.48779297 C337.03944257 216.80523146 353.60353551 221.92332272 369.0546875 228.74609375 C372.35206005 230.14988233 374.4580123 230.56349804 378 230 C379.97905039 228.2443518 380.88412097 226.77845017 381.27607286 224.14540243 C381.39678069 221.73862071 381.41219034 219.34897492 381.39872742 216.93914795 C381.40537424 216.01284742 381.41202107 215.08654688 381.41886932 214.13217664 C381.43755547 211.02127502 381.43489023 207.91075611 381.43237305 204.79980469 C381.44138676 202.57263646 381.45171301 200.3454732 381.46325684 198.11831665 C381.49089869 192.06501456 381.50012113 186.01180641 381.50611091 179.95844936 C381.51547587 173.63496088 381.54167771 167.3115431 381.56611633 160.98809814 C381.6048662 150.37228164 381.6331976 139.7564885 381.65356445 129.140625 C381.67457068 118.20635257 381.70184265 107.27212537 381.73754883 96.33789062 C381.73974765 95.66388052 381.74194648 94.98987041 381.74421193 94.29543576 C381.7552815 90.91411785 381.76647432 87.53280036 381.77772844 84.15148306 C381.87092992 56.10102839 381.94229856 28.05054844 382 0 C392.92245394 3.64081798 403.44151808 8.40935569 414 13 C414 102.1 414 191.2 414 283 C410.54173436 282.30834687 408.2572431 281.82231472 405.19238281 280.45629883 C404.47719482 280.14067993 403.76200684 279.82506104 403.02514648 279.49987793 C402.25887939 279.15573853 401.4926123 278.81159912 400.703125 278.45703125 C399.88948486 278.096698 399.07584473 277.73636475 398.23754883 277.3651123 C396.48595306 276.58908362 394.73529091 275.81094491 392.98547363 275.03091431 C388.3500874 272.96625507 383.70572749 270.92194812 379.0625 268.875 C378.12601624 268.46171951 377.18953247 268.04843903 376.22467041 267.62263489 C326.10901788 245.51549296 278.53883575 226.81596045 224.33300781 247.59570312 C216.76965378 250.78237265 209.47533261 254.60405034 202.26367188 258.51489258 C201.14283203 259.10939209 200.02199219 259.7038916 198.8671875 260.31640625 C197.38387939 261.12766968 197.38387939 261.12766968 195.87060547 261.95532227 C191.47022109 263.55672087 188.50916543 262.66271093 184.31298828 260.82006836 C182.95536377 260.08735718 182.95536377 260.08735718 181.5703125 259.33984375 C180.53986816 258.7969873 179.50942383 258.25413086 178.44775391 257.69482422 C177.35124512 257.11490723 176.25473633 256.53499023 175.125 255.9375 C139.83667 237.8545241 103.85469354 233.07095533 65.5 243.6875 C64.36498047 243.9980835 64.36498047 243.9980835 63.20703125 244.31494141 C47.43072273 248.96634477 32.28734923 256.07686849 17.27764893 262.7276001 C14.61944383 263.90514793 11.95917467 265.07791924 9.29833984 266.24951172 C2.84184471 269.0931357 -3.6122374 271.94219631 -10.06298828 274.79882812 C-13.33173848 276.24529557 -16.60302008 277.68585845 -19.875 279.125 C-20.78805908 279.53218262 -21.70111816 279.93936523 -22.6418457 280.35888672 C-23.4587085 280.71740723 -24.27557129 281.07592773 -25.1171875 281.4453125 C-25.80409668 281.74969238 -26.49100586 282.05407227 -27.19873047 282.36767578 C-29 283 -29 283 -32 283 C-32 193.9 -32 104.8 -32 13 C-2 0 -2 0 0 0 Z " fill="#FFFFFF" transform="translate(65,229)"/>
<path d="M0 0 C20.73147303 16.68199357 33.45155617 40.82642353 36.35375977 67.22265625 C39.0025956 101.43367677 26.03346021 127.3451884 4.63110352 152.8046875 C-8.42140353 168.55056901 -20.19238806 183.88102596 -28.36889648 202.8046875 C-31.66889648 202.8046875 -34.96889648 202.8046875 -38.36889648 202.8046875 C-38.36889648 167.1646875 -38.36889648 131.5246875 -38.36889648 94.8046875 C-33.41889648 94.4746875 -28.46889648 94.1446875 -23.36889648 93.8046875 C-16.86649163 91.7817171 -12.75985188 90.12705767 -8.36889648 84.8046875 C-7.81202148 84.1653125 -7.25514648 83.5259375 -6.68139648 82.8671875 C-2.93712113 76.98332624 -2.47629125 70.59584894 -3.36889648 63.8046875 C-6.06763523 55.62739329 -10.14486415 51.25462625 -17.49389648 46.9921875 C-24.41439176 44.34926105 -32.04827725 44.81539143 -38.74389648 47.8046875 C-44.50322598 51.07324588 -47.99593905 55.44910273 -50.48608398 61.53515625 C-51.54396284 65.4530527 -51.81806641 69.14226227 -51.99389648 73.1796875 C-52.17952148 76.9540625 -52.17952148 76.9540625 -52.36889648 80.8046875 C-58.96889648 80.8046875 -65.56889648 80.8046875 -72.36889648 80.8046875 C-72.45139648 78.3503125 -72.53389648 75.8959375 -72.61889648 73.3671875 C-72.95729332 66.81116272 -73.86362856 61.48651167 -77.36889648 55.8046875 C-77.90514648 54.8971875 -78.44139648 53.9896875 -78.99389648 53.0546875 C-84.26575116 48.06029886 -90.10226255 45.50743516 -97.36889648 45.1796875 C-104.19390195 45.49590397 -109.83560601 47.71305834 -114.99389648 52.2265625 C-120.2829992 58.08235479 -121.95283553 64.33388635 -121.72045898 72.0234375 C-120.8436161 78.96023897 -117.79426016 84.38869381 -112.36889648 88.8046875 C-103.70269453 94.562637 -97.49403188 94.06301181 -86.36889648 94.8046875 C-86.36889648 130.4446875 -86.36889648 166.0846875 -86.36889648 202.8046875 C-89.66889648 202.8046875 -92.96889648 202.8046875 -96.36889648 202.8046875 C-96.84198242 201.81210937 -97.31506836 200.81953125 -97.80249023 199.796875 C-104.54493398 185.85765425 -112.29340578 173.62401313 -122.36889648 161.8046875 C-125.4050678 158.16690446 -128.40248341 154.4994806 -131.36889648 150.8046875 C-131.86969727 150.18319824 -132.37049805 149.56170898 -132.88647461 148.92138672 C-151.78818802 125.31699071 -164.06871086 99.68748431 -161.16674805 68.64208984 C-158.04890922 40.99921318 -146.19292742 18.40025131 -125.23217773 0.078125 C-88.65071491 -28.96745667 -36.55483103 -28.70459216 0 0 Z " fill="#FFFFFF" transform="translate(318.368896484375,98.1953125)"/>
<path d="M0 0 C6.6 0 13.2 0 20 0 C20 35.64 20 71.28 20 108 C13.4 108 6.8 108 0 108 C0 72.36 0 36.72 0 0 Z " fill="#FFFFFF" transform="translate(246,193)"/>
<path d="M0 0 C20.46 0 40.92 0 62 0 C61.67 3.63 61.34 7.26 61 11 C41.2 11 21.4 11 1 11 C0.67 7.37 0.34 3.74 0 0 Z " fill="#FFFFFF" transform="translate(225,315)"/>
<path d="M0 0 C0.99 0.01933594 0.99 0.01933594 2 0.0390625 C2.66 0.02617187 3.32 0.01328125 4 0 C7.15634274 1.04800442 8.20396353 2.91675015 10 5.6640625 C10.50170898 9.08984375 10.50170898 9.08984375 10.49609375 12.9765625 C10.49754898 13.66790283 10.49900421 14.35924316 10.50050354 15.0715332 C10.49885009 16.52722404 10.48735082 17.98293337 10.46655273 19.43847656 C10.43758355 21.65766183 10.44595574 23.8744566 10.45898438 26.09375 C10.4058785 38.17631671 10.4058785 38.17631671 7 42.6640625 C4.19084526 44.06863987 2.11189466 43.91301407 -1 43.6640625 C-4.1359157 41.88421845 -4.84102736 41.14098043 -6 37.6640625 C-6.25113489 33.1256221 -6.27077623 28.58499222 -6.29516602 24.04052734 C-6.30669518 22.54303546 -6.32716217 21.04558498 -6.35668945 19.54833984 C-6.399427 17.38090182 -6.4155411 15.21468237 -6.42578125 13.046875 C-6.44036377 11.75152832 -6.45494629 10.45618164 -6.4699707 9.12158203 C-5.88575492 4.82357479 -4.33844565 1.44049953 0 0 Z " fill="#FFFFFF" transform="translate(254,-0.6640625)"/>
<path d="M0 0 C3.30976475 0.09645945 3.97791415 0.31911383 6.6875 2.5 C8.51476968 6.23398587 8.33475691 8.58211441 7.125 12.4375 C5.0858753 16.66142778 2.71846658 20.66385339 0.3125 24.6875 C-0.31720703 25.77546875 -0.94691406 26.8634375 -1.59570312 27.984375 C-6.95259723 37.06804853 -6.95259723 37.06804853 -10.875 39.4375 C-14.19868343 39.85296043 -16.16746779 39.78170486 -19.1875 38.3125 C-21.50615514 35.73621651 -21.60858464 33.86759772 -21.875 30.4375 C-19.10860904 21.95056302 -9.11805807 1.02945817 0 0 Z " fill="#FFFFFF" transform="translate(334.875,20.5625)"/>
<path d="M0 0 C6.37829483 2.14373579 10.61699274 12.7723986 13.8137207 18.29760742 C14.30291992 19.11745117 14.79211914 19.93729492 15.29614258 20.78198242 C17.7634591 25.02726838 19.8192278 28.64505337 20.0012207 33.67260742 C17.87078592 38.23782481 17.87078592 38.23782481 15.0012207 39.67260742 C12.1887207 40.04760742 12.1887207 40.04760742 9.0012207 39.67260742 C3.72448648 35.40053443 0.653208 29.58480829 -2.7487793 23.79760742 C-3.33788086 22.82952148 -3.92698242 21.86143555 -4.53393555 20.86401367 C-7.54197219 15.781469 -9.95968041 11.65473788 -9.9987793 5.67260742 C-7.76206828 1.10193708 -5.17719424 -0.34101992 0 0 Z " fill="#FFFFFF" transform="translate(178.998779296875,20.327392578125)"/>
<path d="M0 0 C19.8 0 39.6 0 60 0 C59 7 59 7 57.11328125 9.40429688 C52.50332687 11.7671154 48.2990502 11.57229105 43.1875 11.53125 C41.61778442 11.53699036 41.61778442 11.53699036 40.01635742 11.54284668 C37.80744462 11.54556438 35.59849956 11.53821322 33.38964844 11.52148438 C30.01163881 11.50007377 26.6357561 11.52129197 23.2578125 11.546875 C21.10937031 11.5442317 18.96092945 11.53910668 16.8125 11.53125 C15.29982544 11.54339539 15.29982544 11.54339539 13.7565918 11.55578613 C9.52988877 11.49936039 6.68765543 11.35245576 2.88671875 9.40429688 C1 7 1 7 0 0 Z " fill="#FFFFFF" transform="translate(226,340)"/>
<path d="M0 0 C2.56077765 2.56077765 2.31451364 4.42882603 2.4609375 7.9296875 C1.6304851 11.65968557 -1.39223067 13.59203945 -4.4543457 15.64746094 C-7.39836599 17.36416784 -10.34966564 19.0659405 -13.3125 20.75 C-14.33279297 21.35199219 -15.35308594 21.95398438 -16.40429688 22.57421875 C-25.94249111 28.01228424 -25.94249111 28.01228424 -32 27 C-34.4375 25.4375 -34.4375 25.4375 -36 23 C-36.5 19.5 -36.5 19.5 -36 16 C-33.30055205 12.79239329 -30.31940535 10.83738129 -26.68359375 8.80078125 C-25.67232422 8.23166016 -24.66105469 7.66253906 -23.61914062 7.07617188 C-22.56919922 6.49416016 -21.51925781 5.91214844 -20.4375 5.3125 C-19.38369141 4.71888672 -18.32988281 4.12527344 -17.24414062 3.51367188 C-6.36702463 -2.57390357 -6.36702463 -2.57390357 0 0 Z " fill="#FFFFFF" transform="translate(398,80)"/>
<path d="M0 0 C3.92911295 2.03432448 7.71423832 4.27442994 11.5 6.5625 C12.5003125 7.15224609 13.500625 7.74199219 14.53125 8.34960938 C21.86424031 12.72848063 21.86424031 12.72848063 23 15 C23.35519903 18.83614957 23.54724594 21.14629634 21.4375 24.4375 C18.17151617 26.53107938 15.72047889 26.74854503 12 26 C7.92321317 24.2214807 4.1397975 22.00817806 0.3125 19.75 C-0.71939453 19.16347656 -1.75128906 18.57695313 -2.81445312 17.97265625 C-11.48097271 12.96733345 -11.48097271 12.96733345 -15 9 C-15.70882303 6.09215119 -15.33971789 4.057461 -15 1 C-10.95860099 -4.96587473 -5.47771601 -2.32762113 0 0 Z " fill="#FFFFFF" transform="translate(127,81)"/>
<path d="M0 0 C2.94194583 2.02258775 4.49783456 3.47467248 5.625 6.8984375 C6.5136725 11.73059421 5.79962129 14.84883739 3 19 C0.3430076 21.7544371 -0.98502977 21.99887272 -4.890625 22.29296875 C-6.34404009 22.27314945 -7.79731167 22.23754845 -9.25 22.1875 C-9.99507813 22.17396484 -10.74015625 22.16042969 -11.5078125 22.14648438 C-13.33885416 22.11127204 -15.16952169 22.05746851 -17 22 C-17.13593443 19.45651575 -17.23448907 16.92038504 -17.3125 14.375 C-17.35439453 13.66214844 -17.39628906 12.94929687 -17.43945312 12.21484375 C-17.53141075 8.20549121 -17.21181033 5.73054878 -14.66796875 2.5390625 C-10.12043995 -1.78874675 -5.81090932 -1.45782462 0 0 Z " fill="#FFFFFF" transform="translate(297,157)"/>
<path d="M0 0 C3.6578218 2.03993908 5.66946174 3.50419262 8 7 C8.14245897 9.76655324 8.18769445 12.42653306 8.125 15.1875 C8.11597656 15.93708984 8.10695312 16.68667969 8.09765625 17.45898438 C8.07412578 19.30612654 8.03825561 21.15310412 8 23 C5.43635517 23.10845031 2.87733721 23.18749744 0.3125 23.25 C-0.40873047 23.28351563 -1.12996094 23.31703125 -1.87304688 23.3515625 C-5.76223712 23.42259794 -7.5627824 23.27944667 -10.93359375 21.125 C-13.72452791 18.25492782 -14.92649536 16.1273107 -15.06640625 12.078125 C-14.81586892 8.03915951 -14.23882188 6.29538496 -11.625 3.0625 C-7.77845914 0.0402179 -4.80586013 -0.47116276 0 0 Z " fill="#FFFFFF" transform="translate(224,156)"/>
<path d="M0 0 C9.9 0 19.8 0 30 0 C30 8 30 8 28.31640625 9.97509766 C25.67453676 11.14400239 23.82278986 11.38728303 20.9375 11.3984375 C19.97585938 11.40230469 19.01421875 11.40617187 18.0234375 11.41015625 C16.52683594 11.39275391 16.52683594 11.39275391 15 11.375 C14.00226563 11.38660156 13.00453125 11.39820313 11.9765625 11.41015625 C11.01492187 11.40628906 10.05328125 11.40242188 9.0625 11.3984375 C8.18722656 11.39505371 7.31195313 11.39166992 6.41015625 11.38818359 C3.32205544 10.89080917 2.04637889 10.40069682 0 8 C0 5.36 0 2.72 0 0 Z " fill="#FFFFFF" transform="translate(241,364)"/>
</svg>
