<?xml version="1.0" encoding="UTF-8"?>
<!DOCTYPE svg PUBLIC "-//W3C//DTD SVG 1.1//EN" "http://www.w3.org/Graphics/SVG/1.1/DTD/svg11.dtd">
<svg xmlns="http://www.w3.org/2000/svg" version="1.1" width="90px" height="90px" style="shape-rendering:geometricPrecision; text-rendering:geometricPrecision; image-rendering:optimizeQuality; fill-rule:evenodd; clip-rule:evenodd" xmlns:xlink="http://www.w3.org/1999/xlink">
<g><path style="opacity:0.957" fill="#fffcfc" d="M 5.5,14.5 C 16.1719,14.3335 26.8385,14.5002 37.5,15C 32.9496,16.0682 28.7829,17.9015 25,20.5C 23.0671,28.1282 25.5671,33.6282 32.5,37C 39.4109,37.6881 46.2442,37.1881 53,35.5C 55.3804,36.2007 57.5471,37.3674 59.5,39C 64.0323,43.8671 68.8656,48.3671 74,52.5C 76.3385,60.3246 73.5052,63.6579 65.5,62.5C 65.822,64.7224 65.1554,66.5557 63.5,68C 61.1902,68.4966 58.8568,68.6633 56.5,68.5C 56.822,70.7224 56.1554,72.5557 54.5,74C 52.1902,74.4966 49.8568,74.6633 47.5,74.5C 47.822,76.7224 47.1554,78.5557 45.5,80C 42.8333,80.6667 40.1667,80.6667 37.5,80C 28.5304,70.0296 19.1971,60.3629 9.5,51C 8.20677,50.51 6.87344,50.3433 5.5,50.5C 5.5,38.5 5.5,26.5 5.5,14.5 Z"/></g>
<g><path style="opacity:0.932" fill="#fffcfc" d="M 52.5,14.5 C 55.1873,14.3359 57.854,14.5026 60.5,15C 65.3428,18.1714 70.5095,20.6714 76,22.5C 79.4661,21.5911 82.9661,20.9244 86.5,20.5C 86.5,32.5 86.5,44.5 86.5,56.5C 84.1667,56.5 81.8333,56.5 79.5,56.5C 79.628,54.3453 79.128,52.3453 78,50.5C 71.4693,43.6349 64.636,37.1349 57.5,31C 49.21,31.879 40.8767,32.2123 32.5,32C 29.8144,29.4537 28.8144,26.287 29.5,22.5C 37.3796,20.2079 45.0463,17.5412 52.5,14.5 Z"/></g>
</svg>
