<?xml version="1.0" encoding="UTF-8"?>
<!DOCTYPE svg PUBLIC "-//W3C//DTD SVG 1.1//EN" "http://www.w3.org/Graphics/SVG/1.1/DTD/svg11.dtd">
<svg xmlns="http://www.w3.org/2000/svg" version="1.1" width="100px" height="100px" style="shape-rendering:geometricPrecision; text-rendering:geometricPrecision; image-rendering:optimizeQuality; fill-rule:evenodd; clip-rule:evenodd" xmlns:xlink="http://www.w3.org/1999/xlink">
<g><path style="opacity:0.974" fill="#fffcfc" d="M 9.5,-0.5 C 24.1667,-0.5 38.8333,-0.5 53.5,-0.5C 62.4644,8.96503 71.6311,18.2984 81,27.5C 81.8313,34.856 81.6646,42.1893 80.5,49.5C 74.3241,47.9035 68.3241,48.4035 62.5,51C 49.5,51.3333 36.5,51.6667 23.5,52C 22.1667,53 22.1667,54 23.5,55C 34.5,55.3333 45.5,55.6667 56.5,56C 54.3425,57.9812 52.6759,60.3145 51.5,63C 42.1667,63.3333 32.8333,63.6667 23.5,64C 22.1667,65 22.1667,66 23.5,67C 32.4938,67.4998 41.4938,67.6664 50.5,67.5C 50.5,70.1667 50.5,72.8333 50.5,75.5C 41.4938,75.3336 32.4938,75.5002 23.5,76C 22.5494,76.7175 22.3828,77.5509 23,78.5C 32.4226,79.3197 41.9226,79.8197 51.5,80C 53.7435,84.2475 56.7435,87.9142 60.5,91C 43.5033,91.4999 26.5033,91.6666 9.5,91.5C 9.5,60.8333 9.5,30.1667 9.5,-0.5 Z M 53.5,7.5 C 60.2982,13.7973 66.9648,20.2973 73.5,27C 66.8417,27.4996 60.175,27.6663 53.5,27.5C 53.5,20.8333 53.5,14.1667 53.5,7.5 Z M 23.5,11.5 C 28.8437,11.334 34.1771,11.5006 39.5,12C 40,12.5 40.5,13 41,13.5C 41.6667,18.8333 41.6667,24.1667 41,29.5C 40.5,30 40,30.5 39.5,31C 34.1667,31.6667 28.8333,31.6667 23.5,31C 23,30.5 22.5,30 22,29.5C 21.3333,24.1667 21.3333,18.8333 22,13.5C 22.7172,12.9558 23.2172,12.2891 23.5,11.5 Z M 23.5,39.5 C 38.1705,39.3334 52.8371,39.5001 67.5,40C 68.8333,41 68.8333,42 67.5,43C 52.8333,43.6667 38.1667,43.6667 23.5,43C 22.3157,41.8545 22.3157,40.6879 23.5,39.5 Z"/></g>
<g><path style="opacity:1" fill="#fefdfc" d="M 25.5,15.5 C 29.5,15.5 33.5,15.5 37.5,15.5C 37.5,19.5 37.5,23.5 37.5,27.5C 33.5,27.5 29.5,27.5 25.5,27.5C 25.5,23.5 25.5,19.5 25.5,15.5 Z"/></g>
<g><path style="opacity:0.909" fill="#fffdfd" d="M 99.5,93.5 C 99.5,93.8333 99.5,94.1667 99.5,94.5C 98.2058,95.2899 97.0391,96.2899 96,97.5C 92.6667,94.1667 89.3333,90.8333 86,87.5C 84.4207,89.0412 82.5873,90.2078 80.5,91C 60.3333,93.5 51.5,84.6667 54,64.5C 59.3426,53.2477 68.1759,49.0811 80.5,52C 91.7523,57.3426 95.9189,66.1759 93,78.5C 92.2078,80.5873 91.0412,82.4207 89.5,84C 92.7025,87.3709 96.0359,90.5375 99.5,93.5 Z M 70.5,62.5 C 78.4863,61.998 80.4863,65.1647 76.5,72C 68.424,72.8047 66.424,69.638 70.5,62.5 Z M 67.5,77.5 C 71.5138,77.3345 75.5138,77.5012 79.5,78C 80.8333,79 80.8333,80 79.5,81C 75.5,81.6667 71.5,81.6667 67.5,81C 66.3157,79.8545 66.3157,78.6879 67.5,77.5 Z"/></g>
</svg>
