<?xml version="1.0" encoding="UTF-8"?>
<!DOCTYPE svg PUBLIC "-//W3C//DTD SVG 1.1//EN" "http://www.w3.org/Graphics/SVG/1.1/DTD/svg11.dtd">
<svg xmlns="http://www.w3.org/2000/svg" version="1.1" width="90px" height="90px" style="shape-rendering:geometricPrecision; text-rendering:geometricPrecision; image-rendering:optimizeQuality; fill-rule:evenodd; clip-rule:evenodd" xmlns:xlink="http://www.w3.org/1999/xlink">
<g><path style="opacity:0.935" fill="#fffdfd" d="M -0.5,69.5 C -0.5,66.8333 -0.5,64.1667 -0.5,61.5C 0.458367,61.0472 1.2917,60.3805 2,59.5C 1.86615,48.0835 2.69948,36.9169 4.5,26C 17.7603,21.857 31.0937,18.0237 44.5,14.5C 57.9076,18.0191 71.241,21.8525 84.5,26C 87.1667,28.3333 87.1667,30.6667 84.5,33C 71.241,37.1475 57.9076,40.9809 44.5,44.5C 32.4389,41.3683 20.4389,38.0349 8.5,34.5C 8.3336,42.84 8.50027,51.1733 9,59.5C 11.4496,62.3782 12.1163,65.7115 11,69.5C 9.71926,72.6025 7.88593,75.2692 5.5,77.5C 3.09082,75.0976 1.09082,72.4309 -0.5,69.5 Z"/></g>
<g><path style="opacity:0.901" fill="#fffdfd" d="M 20.5,43.5 C 27.2284,45.0193 33.8951,46.8526 40.5,49C 43.4294,49.7772 46.2628,49.6105 49,48.5C 46.8202,52.5393 44.8202,56.8727 43,61.5C 42.5026,64.146 42.3359,66.8127 42.5,69.5C 37.5316,67.687 32.5316,65.8537 27.5,64C 25.1902,63.5034 22.8568,63.3367 20.5,63.5C 20.5,56.8333 20.5,50.1667 20.5,43.5 Z"/></g>
<g><path style="opacity:0.897" fill="#fffdfd" d="M 89.5,61.5 C 89.5,66.1667 89.5,70.8333 89.5,75.5C 86.5,81.8333 81.8333,86.5 75.5,89.5C 70.8333,89.5 66.1667,89.5 61.5,89.5C 46.945,81.7525 43.445,70.4192 51,55.5C 59.9976,46.6263 70.1643,45.1263 81.5,51C 85.0368,53.94 87.7035,57.44 89.5,61.5 Z M 65.5,53.5 C 67.5,53.5 69.5,53.5 71.5,53.5C 71.3398,55.1992 71.5065,56.8659 72,58.5C 74.1667,59.3333 75.6667,60.8333 76.5,63C 75.1667,63.6667 73.8333,63.6667 72.5,63C 69.5964,59.622 66.9298,59.7887 64.5,63.5C 64.9767,64.4776 65.6433,65.3109 66.5,66C 69.9033,66.5783 73.0699,67.7449 76,69.5C 77.3366,73.5263 76.1699,76.5263 72.5,78.5C 71.5481,80.0453 71.2148,81.712 71.5,83.5C 69.5,83.5 67.5,83.5 65.5,83.5C 65.7852,81.712 65.4519,80.0453 64.5,78.5C 62.8333,77.5 61.5,76.1667 60.5,74.5C 61.1667,74.1667 61.8333,73.8333 62.5,73.5C 64.4771,74.4599 66.4771,75.4599 68.5,76.5C 72.0318,75.8417 73.0318,74.0083 71.5,71C 67.3661,70.8485 63.8661,69.3485 61,66.5C 60.2427,63.0128 61.4094,60.3461 64.5,58.5C 65.4519,56.9547 65.7852,55.288 65.5,53.5 Z"/></g>
</svg>
