<?xml version="1.0" encoding="UTF-8"?>
<svg version="1.1" xmlns="http://www.w3.org/2000/svg" width="512" height="512">
<path d="M0 0 C0 168.96 0 337.92 0 512 C-12.37489919 510.87500916 -12.37489919 510.87500916 -17.62748718 509.8576355 C-18.82361539 509.6287092 -20.0197436 509.39978291 -21.25211811 509.16391945 C-22.5297663 508.9137274 -23.80741449 508.66353535 -25.1237793 508.40576172 C-26.51909392 508.13661035 -27.91450144 507.8679402 -29.30999279 507.59970665 C-33.10236237 506.86937298 -36.89341442 506.13239895 -40.6842761 505.39428425 C-44.74985147 504.60395018 -48.81665795 503.82000036 -52.8833313 503.03533936 C-59.85758053 501.68882411 -66.83109662 500.33856883 -73.80410767 498.98565674 C-84.70978054 496.86978447 -95.61683533 494.76109567 -106.52416992 492.65380859 C-110.19514943 491.94451325 -113.86612249 491.23518453 -117.53709412 490.52584839 C-118.44725086 490.34998817 -119.3574076 490.17412795 -120.29514486 489.99293864 C-126.76231508 488.74326927 -133.22928394 487.49256124 -139.69618225 486.2414856 C-162.86882387 481.75901128 -186.04524379 477.2967556 -209.2265625 472.859375 C-209.93888826 472.72300393 -210.65121401 472.58663285 -211.3851254 472.44612932 C-224.12186704 470.00774981 -236.85906158 467.57174141 -249.5965271 465.137146 C-255.63183864 463.98354904 -261.66696264 462.82897567 -267.70196152 461.6737442 C-270.92200043 461.05772105 -274.14228249 460.44298114 -277.36257935 459.82830811 C-279.27013458 459.46324507 -281.17767732 459.09811675 -283.08520508 458.73291016 C-283.94034541 458.57006971 -284.79548574 458.40722927 -285.67653942 458.23945427 C-286.45869477 458.08942514 -287.24085012 457.93939602 -288.04670715 457.78482056 C-288.71883145 457.65639582 -289.39095575 457.52797108 -290.08344746 457.39565468 C-292.06791339 456.98597991 -294.03418906 456.49145273 -296 456 C-296 324 -296 192 -296 56 C-201.34020606 37.5297963 -201.34020606 37.5297963 -168.61651969 31.23997593 C-163.66052166 30.28713016 -158.70476838 29.3330127 -153.74897766 28.37908936 C-145.52362114 26.79598079 -137.29812422 25.21360378 -129.07250977 23.63183594 C-117.53464373 21.41312742 -105.99706977 19.19290286 -94.45953882 16.97245264 C-85.33115568 15.21571446 -76.20268993 13.45940563 -67.07421875 11.703125 C-66.12230266 11.5199727 -65.17038658 11.33682039 -64.18962455 11.14811802 C-61.38876697 10.60923128 -58.58790092 10.07038856 -55.78703308 9.53155518 C-54.89323313 9.35958122 -53.99943317 9.18760727 -53.07854837 9.01042199 C-48.81090944 8.18944326 -44.54311436 7.36929533 -40.27492809 6.55116653 C-38.6998311 6.24918428 -37.12473896 5.9471767 -35.5496521 5.6451416 C-34.80291483 5.50195488 -34.05617756 5.35876815 -33.28681189 5.21124244 C-28.87804912 4.36456418 -24.47203248 3.50503783 -20.06777954 2.63513184 C-19.07959386 2.44160503 -18.09140818 2.24807823 -17.07327747 2.04868698 C-15.36465815 1.71356956 -13.65683852 1.37432515 -11.95018291 1.02934647 C-7.7906659 0.21788699 -4.31297212 0 0 0 Z M-212.88671875 175.59375 C-222.90125751 186.99662592 -227.13427307 199.91106374 -227 215 C-225.94179804 231.23206227 -219.36057287 243.66869953 -207.3125 254.4375 C-195.59248271 263.59426729 -181.48921102 269.45998181 -167.875 275.1875 C-157.6691896 279.49028927 -148.71611344 283.83771593 -142 293 C-139.80135466 298.44426464 -139.33802936 303.37716521 -141 309 C-144.0637506 314.75442456 -148.57087462 317.10632095 -154.53515625 319.2734375 C-174.157877 325.05763094 -195.58736472 320.5724095 -213.21875 311.1953125 C-217.59557362 308.65422276 -221.78899337 305.80733775 -226 303 C-226 316.86 -226 330.72 -226 345 C-219.86641435 348.06679282 -215.24121912 350.05320648 -208.8125 351.625 C-207.95462891 351.83664795 -207.09675781 352.0482959 -206.21289062 352.26635742 C-177.47262881 358.96946598 -141.79900223 358.97832941 -116 343 C-104.42275321 334.45602363 -97.41615201 323.67133806 -94.25 309.6875 C-93.08700453 292.53331681 -94.7889363 277.39121202 -105.5625 263.4375 C-116.37040169 251.76384907 -130.2258471 245.51222792 -144.44921875 239.08203125 C-145.59044189 238.56302246 -146.73166504 238.04401367 -147.9074707 237.50927734 C-150.16280818 236.48696778 -152.42286722 235.47498989 -154.68823242 234.47509766 C-164.35258536 230.11662074 -175.03590364 224.92819272 -180 215 C-180.5033425 208.98892894 -180.83859346 203.95818322 -177 199 C-177 198.34 -177 197.68 -177 197 C-174.09122102 195.50539698 -171.151159 194.17718819 -168.125 192.9375 C-167.30257812 192.59589844 -166.48015625 192.25429687 -165.6328125 191.90234375 C-147.01739347 185.52228174 -125.23082831 191.38193674 -108 199 C-106.35 199.66 -104.7 200.32 -103 201 C-103 188.46 -103 175.92 -103 163 C-112.06003182 159.36650276 -112.06003182 159.36650276 -121.3125 157.3125 C-122.07393311 157.19366455 -122.83536621 157.0748291 -123.61987305 156.95239258 C-153.10559298 152.66252931 -190.20481369 153.33117428 -212.88671875 175.59375 Z " fill="#FFFFFF" transform="translate(296,0)"/>
<path d="M0 0 C10.89149765 9.36967195 18.56134349 22.31287433 20.7890625 36.640625 C20.90585049 39.31740573 20.8345131 41.95903957 20.7890625 44.640625 C21.63855469 44.88425781 22.48804688 45.12789062 23.36328125 45.37890625 C27.11809522 46.76180809 30.28623782 48.63411966 33.6015625 50.828125 C34.21467285 51.2288623 34.8277832 51.62959961 35.45947266 52.04248047 C40.43778778 55.33212178 45.1990642 58.82452176 49.7890625 62.640625 C50.47484375 63.20394531 51.160625 63.76726562 51.8671875 64.34765625 C64.05458123 74.65112079 75.26929053 89.03303463 81.7890625 103.640625 C81.7890625 104.300625 81.7890625 104.960625 81.7890625 105.640625 C83.0059375 105.558125 84.2228125 105.475625 85.4765625 105.390625 C99.92114243 105.4359769 113.10513362 113.26536232 123.27734375 122.9296875 C135.96847508 136.62742489 139.4297449 152.13352251 139.1015625 170.203125 C138.82798775 176.83275305 137.48924778 182.57364619 134.7890625 188.640625 C134.3765625 189.57777344 133.9640625 190.51492188 133.5390625 191.48046875 C125.67610673 207.40742177 112.25554377 216.93161573 95.7890625 222.640625 C92.45226687 223.46332653 89.40822804 223.75434389 85.9765625 223.703125 C85.18636719 223.69410156 84.39617187 223.68507813 83.58203125 223.67578125 C82.69451172 223.65837891 82.69451172 223.65837891 81.7890625 223.640625 C81.54414063 224.49140625 81.29921875 225.3421875 81.046875 226.21875 C79.67701808 229.94544148 77.83602684 233.0971139 75.6640625 236.390625 C75.06791138 237.30533569 75.06791138 237.30533569 74.4597168 238.23852539 C70.8877694 243.64078545 66.96449831 248.69064139 62.7890625 253.640625 C62.27730469 254.27484375 61.76554687 254.9090625 61.23828125 255.5625 C51.44820973 267.49002649 36.86114671 278.35986425 22.7890625 284.640625 C22.1290625 284.640625 21.4690625 284.640625 20.7890625 284.640625 C20.8509375 285.73375 20.9128125 286.826875 20.9765625 287.953125 C20.87616662 302.28463725 13.23187756 316.17886963 3.453125 326.23828125 C-8.53001469 337.04419167 -24.2811171 343.21910539 -40.4453125 342.90625 C-55.3796875 341.471875 -55.3796875 341.471875 -58.2109375 338.640625 C-58.3065536 337.18581005 -58.33282101 335.72637014 -58.33119202 334.26841736 C-58.33325401 332.85277748 -58.33325401 332.85277748 -58.33535767 331.40853882 C-58.33176239 330.36485138 -58.32816711 329.32116394 -58.32446289 328.24584961 C-58.32460892 327.15330368 -58.32475494 326.06075775 -58.3249054 324.93510437 C-58.32420572 321.30437267 -58.31641079 317.67369154 -58.30859375 314.04296875 C-58.30672976 311.53333057 -58.30530577 309.02369202 -58.30430603 306.51405334 C-58.30087098 300.57127907 -58.29298023 294.62852116 -58.28295654 288.68575531 C-58.27070003 281.25860575 -58.26531542 273.83145395 -58.25976562 266.40429688 C-58.24902561 253.14973027 -58.23213832 239.89517879 -58.2109375 226.640625 C-56.64740537 226.14364836 -55.08149396 225.65415407 -53.51464844 225.16772461 C-52.20702545 224.75761391 -52.20702545 224.75761391 -50.87298584 224.33921814 C-46.72742606 223.25131167 -42.7265109 223.14959458 -38.4609375 223.203125 C-37.59404297 223.21142334 -36.72714844 223.21972168 -35.83398438 223.22827148 C-21.23222435 223.60790644 -7.79724704 228.95336749 3.12109375 238.8203125 C6.7459637 242.77625957 9.76151713 247.22119513 12.7890625 251.640625 C26.54975076 244.55837461 40.75926231 231.58535936 47.7890625 217.640625 C46.65996116 214.25332098 46.13237585 213.96802574 43.2890625 212.078125 C31.5116104 203.48776119 23.56083686 190.98863344 20.7890625 176.640625 C18.53990416 159.84690937 20.74082668 143.84277349 30.6640625 129.765625 C35.66493329 123.30773359 40.80061228 117.90187514 47.7890625 113.640625 C42.7115542 99.07269544 27.82165806 85.44432653 14.46484375 78.41796875 C13.91183594 78.16144531 13.35882813 77.90492188 12.7890625 77.640625 C12.41394531 78.16011719 12.03882813 78.67960937 11.65234375 79.21484375 C8.61427487 83.3548822 5.56849532 87.13773604 1.7890625 90.640625 C1.31210937 91.11113281 0.83515625 91.58164063 0.34375 92.06640625 C-10.39012521 102.10024612 -23.95567985 105.84944616 -38.2734375 106.015625 C-39.51383789 106.03665283 -39.51383789 106.03665283 -40.77929688 106.05810547 C-47.42714089 106.00678601 -51.44061938 104.67172044 -58.2109375 102.640625 C-58.2109375 65.680625 -58.2109375 28.720625 -58.2109375 -9.359375 C-37.8112967 -17.0092403 -17.39833959 -12.7841814 0 0 Z " fill="#FFFFFF" transform="translate(373.2109375,91.359375)"/>
</svg>
