<?xml version="1.0" encoding="UTF-8"?>
<svg version="1.1" xmlns="http://www.w3.org/2000/svg" width="256" height="256">
<path d="M0 0 C0.66 0 1.32 0 2 0 C3.77643163 2.23753535 5.43237932 4.47222773 7.0625 6.8125 C7.52205078 7.45509766 7.98160156 8.09769531 8.45507812 8.75976562 C10.41918817 11.5429759 11.91267621 13.73802864 13 17 C14.06436279 16.64172119 15.12872559 16.28344238 16.2253418 15.91430664 C20.18460199 14.58246211 24.14519664 13.25462532 28.10620117 11.92797852 C29.8184806 11.35387177 31.53039905 10.7786872 33.24194336 10.20239258 C35.70592027 9.37295626 38.17118076 8.54743885 40.63671875 7.72265625 C41.39836838 7.46533218 42.16001801 7.20800812 42.94474792 6.94288635 C43.66511734 6.70271286 44.38548676 6.46253937 45.12768555 6.21508789 C45.75611862 6.00412979 46.3845517 5.79317169 47.0320282 5.57582092 C49.31751635 4.90709595 51.66493099 4.4670138 54 4 C54 52.84 54 101.68 54 152 C41.65155408 148.63224202 41.65155408 148.63224202 35.78125 146.57421875 C34.44387764 146.10920738 33.10647378 145.64428659 31.76904297 145.17944336 C31.0750238 144.93676727 30.38100464 144.69409119 29.66595459 144.44406128 C10.43344954 137.72620639 -8.93141018 131.42350217 -28.31826782 125.16790771 C-33.55658764 123.4759536 -38.77713447 121.74095518 -44 120 C-44 92.28 -44 64.56 -44 36 C-28.655 31.05 -28.655 31.05 -13 26 C-7.97932141 19.11780575 -7.97932141 19.11780575 -5.52246094 11.8828125 C-4.73684843 9.0516706 -3.38503583 6.57953763 -2 4 C-1.608125 3.21625 -1.21625 2.4325 -0.8125 1.625 C-0.544375 1.08875 -0.27625 0.5525 0 0 Z M1 14 C-0.98 18.455 -0.98 18.455 -3 23 C-0.03 22.01 2.94 21.02 6 20 C5.34 18.68 4.68 17.36 4 16 C3.67 15.34 3.34 14.68 3 14 C2.34 14 1.68 14 1 14 Z M33.05004883 23.203125 C31.99600609 23.55425354 31.99600609 23.55425354 30.92066956 23.91247559 C28.59800923 24.68739245 26.27753919 25.46866378 23.95703125 26.25 C22.34719225 26.78847802 20.73722034 27.32655883 19.12712097 27.86425781 C14.88925675 29.28069777 10.6532221 30.70253397 6.4175415 32.12548828 C2.09520489 33.5764955 -2.2288342 35.02241021 -6.55273438 36.46875 C-15.03683552 39.30750935 -23.51884905 42.15243866 -32 45 C-32 54.24 -32 63.48 -32 73 C-28.40008323 68.20011097 -25.67267485 63.13718271 -22.8125 57.875 C-22.25369141 56.86050781 -21.69488281 55.84601563 -21.11914062 54.80078125 C-20.59126953 53.83269531 -20.06339844 52.86460938 -19.51953125 51.8671875 C-19.03589111 50.98144043 -18.55225098 50.09569336 -18.05395508 49.18310547 C-16.85507895 47.10385259 -16.85507895 47.10385259 -17 45 C-16.34 45 -15.68 45 -15 45 C-14.76369873 45.68231689 -14.52739746 46.36463379 -14.28393555 47.06762695 C-12.72272828 50.6332593 -10.65342846 53.72464293 -8.45703125 56.91796875 C-8.01034592 57.57525467 -7.56366058 58.23254059 -7.10343933 58.90974426 C-5.67756706 61.0053959 -4.24508485 63.09643302 -2.8125 65.1875 C-1.86871793 66.57327993 -0.9253546 67.95934513 0.01757812 69.34570312 C4.95855689 76.60117617 9.93944762 83.82721707 15 91 C17.65169504 88.43909922 19.96889405 85.85477109 22.13671875 82.875 C22.71010986 82.09108887 23.28350098 81.30717773 23.87426758 80.49951172 C24.47263428 79.67467285 25.07100098 78.84983398 25.6875 78 C26.93452054 76.29399645 28.1819167 74.58826739 29.4296875 72.8828125 C30.03651367 72.05168945 30.64333984 71.22056641 31.26855469 70.36425781 C33.59624378 67.18583971 35.94780569 64.02594651 38.3125 60.875 C39.00988281 59.94429687 39.70726562 59.01359375 40.42578125 58.0546875 C42 56 42 56 43 55 C43.08847743 52.47905924 43.11527301 49.98569107 43.09765625 47.46484375 C43.0962413 46.71159317 43.09482635 45.95834259 43.09336853 45.18226624 C43.08775376 42.7673044 43.07519883 40.35243399 43.0625 37.9375 C43.0574869 36.30403779 43.05292366 34.67057414 43.04882812 33.03710938 C43.03777954 29.02470415 43.02050506 25.01236759 43 21 C39.38090049 21 36.43402364 22.05676823 33.05004883 23.203125 Z M-16 68 C-16.33733154 68.64960693 -16.67466309 69.29921387 -17.0222168 69.96850586 C-18.5760054 72.95885112 -20.1317403 75.94817978 -21.6875 78.9375 C-22.21794922 79.95908203 -22.74839844 80.98066406 -23.29492188 82.03320312 C-23.82021484 83.04189453 -24.34550781 84.05058594 -24.88671875 85.08984375 C-25.66728638 86.59115845 -25.66728638 86.59115845 -26.46362305 88.12280273 C-27.87171772 90.75976376 -29.36004512 93.32988573 -30.875 95.90625 C-32.74571204 99.24398022 -33.58731465 101.66013192 -33.3125 105.5625 C-33.20833333 107.04166667 -33.10416667 108.52083333 -33 110 C-24.90239951 113.3907593 -16.63847832 116.2186003 -8.3125 118.984375 C-6.91904975 119.44930847 -5.52565887 119.91441991 -4.13232422 120.37969971 C-1.23518228 121.34638919 1.66266092 122.31093757 4.56103516 123.27392578 C8.27919178 124.50948363 11.99550243 125.75049359 15.71131897 126.9930687 C18.57753995 127.95087882 21.444703 128.90584219 24.31216431 129.85993195 C25.68402477 130.31677396 27.05558851 130.77450799 28.42684937 131.23314667 C30.33307929 131.87024318 32.24072459 132.50310016 34.1484375 133.13574219 C35.23302246 133.49674011 36.31760742 133.85773804 37.43505859 134.22967529 C39.87289329 135.0958788 39.87289329 135.0958788 42 135 C42 115.53 42 96.06 42 76 C38.99673847 79.00326153 36.6189698 81.69030348 34.125 85.0625 C33.35542969 86.10019531 32.58585937 87.13789062 31.79296875 88.20703125 C30.86175684 89.47119043 29.93079296 90.73553233 29 92 C27.76702523 93.67064536 26.53394547 95.34121323 25.30078125 97.01171875 C21.8630207 101.67141769 18.43009698 106.33465757 15 111 C11.40785126 106.68942151 8.31748263 102.11592126 5.2109375 97.453125 C4.0938802 95.78767308 2.97668878 94.12231112 1.859375 92.45703125 C0.10856664 89.84216836 -1.64078185 87.22635346 -3.38769531 84.60888672 C-5.08002771 82.07512324 -6.77790527 79.54515095 -8.4765625 77.015625 C-9.00053619 76.22714172 -9.52450989 75.43865845 -10.06436157 74.62628174 C-10.55181854 73.90172791 -11.03927551 73.17717407 -11.54150391 72.43066406 C-11.96912018 71.79066467 -12.39673645 71.15066528 -12.83731079 70.49127197 C-13.94725918 68.84703848 -13.94725918 68.84703848 -16 68 Z " fill="#FFFFFF" transform="translate(175,22)"/>
<path d="M0 0 C5.09264257 3.13393389 7.93246689 5.94035934 9.44921875 11.90625 C10.14593443 17.68192204 9.66625826 21.90196632 6.44921875 26.90625 C4.76171875 28.78125 4.76171875 28.78125 3.44921875 29.90625 C4.56296875 30.339375 5.67671875 30.7725 6.82421875 31.21875 C10.44921875 32.90625 10.44921875 32.90625 12.44921875 35.90625 C12.92151756 41.20469172 12.00440208 44.75046627 9.78125 49.5390625 C9.50455978 50.13878876 9.22786957 50.73851501 8.9427948 51.35641479 C8.35824063 52.61482874 7.76709349 53.87019935 7.16967773 55.12255859 C6.26447676 57.02545218 5.385929 58.93906093 4.50976562 60.85546875 C3.93514572 62.0840604 3.35902277 63.31195041 2.78125 64.5390625 C2.26280518 65.64137207 1.74436035 66.74368164 1.21020508 67.87939453 C-0.9599808 71.60959896 -3.43201098 75.10201543 -7.578125 76.67578125 C-10.87795568 76.75001057 -12.77444451 76.62929131 -15.2578125 74.31640625 C-16.8287739 72.24432804 -18.20394815 70.12972003 -19.55078125 67.90625 C-20.33849509 66.73691082 -21.12962755 65.56985926 -21.92578125 64.40625 C-22.46203125 63.58125 -22.99828125 62.75625 -23.55078125 61.90625 C-24.38996094 62.79763672 -24.38996094 62.79763672 -25.24609375 63.70703125 C-34.26526165 73.03070482 -44.9744606 82.84976436 -56.55078125 88.90625 C-57.54078125 88.90625 -58.53078125 88.90625 -59.55078125 88.90625 C-59.5418988 89.8096965 -59.53301636 90.71314301 -59.52386475 91.64396667 C-59.44367738 100.1630043 -59.38279574 108.68191496 -59.34353256 117.2012434 C-59.32266819 121.58102216 -59.2943719 125.96048877 -59.24902344 130.34008789 C-59.20552413 134.56761551 -59.18163549 138.79484312 -59.17127228 143.02257729 C-59.16388819 144.63453201 -59.14946858 146.24647053 -59.12786102 147.85829735 C-59.09877147 150.11837465 -59.09482738 152.37721642 -59.09667969 154.63745117 C-59.08779724 155.92318527 -59.07891479 157.20891937 -59.06976318 158.53361511 C-59.63276084 162.48104592 -60.76809061 164.10818817 -63.55078125 166.90625 C-67.26274716 168.76223295 -71.50960739 168.49717637 -75.55078125 167.90625 C-78.61328125 165.46875 -78.61328125 165.46875 -80.55078125 162.90625 C-80.88078125 162.57625 -81.21078125 162.24625 -81.55078125 161.90625 C-81.68333502 159.02718157 -81.75067666 156.1715115 -81.77539062 153.29077148 C-81.7867807 152.38664017 -81.79817078 151.48250885 -81.80990601 150.55097961 C-81.92073196 141.07079739 -81.96802627 131.58982476 -82.01074219 122.10913086 C-82.0329976 117.61102031 -82.07473158 113.113742 -82.13378906 108.6159668 C-82.20493101 103.18767731 -82.24158336 97.76016982 -82.25386047 92.33143806 C-82.26425503 90.26417603 -82.28666485 88.19693732 -82.32145691 86.12994194 C-82.36776041 83.22820396 -82.36965193 80.32951694 -82.36132812 77.42749023 C-82.38492401 76.57885406 -82.4085199 75.7302179 -82.43283081 74.85586548 C-82.34951152 68.82977337 -80.52520587 65.89006349 -76.33372688 61.61419582 C-75.74535482 61.0505737 -75.15698277 60.48695158 -74.55078125 59.90625 C-73.8264238 59.13998795 -73.10206635 58.37372589 -72.35575867 57.58424377 C-71.73779922 56.96548874 -71.11983978 56.3467337 -70.4831543 55.70922852 C-69.76939133 54.99231339 -69.05562836 54.27539825 -68.32023621 53.53675842 C-67.57518326 52.79372971 -66.83013031 52.05070099 -66.0625 51.28515625 C-64.88588554 50.1071067 -64.88588554 50.1071067 -63.6855011 48.90525818 C-62.04213149 47.26121283 -60.3975175 45.61841047 -58.75170898 43.97680664 C-56.22457977 41.4550778 -53.70288837 38.92799836 -51.18164062 36.40039062 C-49.57974801 34.79915805 -47.97754562 33.19823529 -46.375 31.59765625 C-45.6198259 30.84045792 -44.86465179 30.08325958 -44.08659363 29.30311584 C-43.03959038 28.26084084 -43.03959038 28.26084084 -41.97143555 27.19750977 C-41.35745407 26.58432388 -40.7434726 25.971138 -40.11088562 25.33937073 C-37.55898882 22.99518385 -35.62219177 22.67911836 -32.23828125 22.53125 C-31.47902344 22.48226562 -30.71976563 22.43328125 -29.9375 22.3828125 C-25.29490794 23.40099145 -23.00747924 27.23438518 -20.453125 30.9921875 C-19.80472656 32.07757813 -19.15632813 33.16296875 -18.48828125 34.28125 C-17.83730469 35.36148438 -17.18632813 36.44171875 -16.515625 37.5546875 C-14.50155465 40.99021904 -12.5265954 44.44857523 -10.55078125 47.90625 C-7.91078125 42.95625 -5.27078125 38.00625 -2.55078125 32.90625 C-5.19078125 33.23625 -7.83078125 33.56625 -10.55078125 33.90625 C-16.71765993 31.92030602 -21.17249207 29.37766509 -24.36328125 23.65625 C-26.23760036 17.73734756 -26.42306199 13.28819276 -23.92578125 7.65625 C-19.25699977 -0.80072427 -8.73493669 -3.74545524 0 0 Z " fill="#FFFFFF" transform="translate(112.55078125,73.09375)"/>
<path d="M0 0 C3.0625 0.4375 3.0625 0.4375 4.6953125 2.453125 C6.38737145 6.14664796 6.69952542 9.63235031 7 13.625 C7.6387595 20.26824124 8.49291232 26.63215633 12.0625 32.4375 C15.30403166 34.5985211 16.29942901 35.07997553 20.0625 34.4375 C24.32588313 30.80108498 25.14444295 26.11070093 26.3515625 20.86328125 C27.0625 18.4375 27.0625 18.4375 29.0625 16.4375 C32.0625 16.1875 32.0625 16.1875 35.0625 16.4375 C37.0625 18.4375 37.0625 18.4375 37.30300903 21.0317688 C37.2963472 22.67724197 37.2963472 22.67724197 37.28955078 24.35595703 C37.28939972 25.59709259 37.28924866 26.83822815 37.28909302 28.11697388 C37.278879 29.4764217 37.268447 30.8358679 37.2578125 32.1953125 C37.25408284 33.58250729 37.25123565 34.96970471 37.24923706 36.35690308 C37.24159684 40.00990051 37.22194516 43.66273917 37.1998291 47.31567383 C37.17937896 51.04245862 37.17023713 54.76926904 37.16015625 58.49609375 C37.13869951 65.80996825 37.10455903 73.12371189 37.0625 80.4375 C38.54363281 80.40269531 38.54363281 80.40269531 40.0546875 80.3671875 C41.97667969 80.34011719 41.97667969 80.34011719 43.9375 80.3125 C45.21367187 80.28929687 46.48984375 80.26609375 47.8046875 80.2421875 C51.0625 80.4375 51.0625 80.4375 53.0625 82.4375 C53.3125 85.4375 53.3125 85.4375 53.0625 88.4375 C50.45944108 91.04055892 48.63971461 90.68574978 45.09350586 90.71539307 C43.87159546 90.70932037 43.87159546 90.70932037 42.625 90.703125 C41.78912354 90.70503845 40.95324707 90.7069519 40.09204102 90.70892334 C38.32340189 90.71028536 36.55475277 90.70658776 34.78613281 90.69824219 C32.07334006 90.68754275 29.36120956 90.69813676 26.6484375 90.7109375 C24.9322902 90.70961591 23.21614331 90.70705352 21.5 90.703125 C20.2780896 90.70919769 20.2780896 90.70919769 19.03149414 90.71539307 C13.29241928 90.66741928 13.29241928 90.66741928 11.0625 88.4375 C10.8125 85.4375 10.8125 85.4375 11.0625 82.4375 C11.7225 81.7775 12.3825 81.1175 13.0625 80.4375 C17.6825 80.4375 22.3025 80.4375 27.0625 80.4375 C26.7325 68.5575 26.4025 56.6775 26.0625 44.4375 C24.4125 45.0975 22.7625 45.7575 21.0625 46.4375 C15.35212509 46.89070436 12.07128991 46.49164019 7.0625 43.4375 C6.5675 42.9425 6.5675 42.9425 6.0625 42.4375 C5.7325 49.6975 5.4025 56.9575 5.0625 64.4375 C8.465625 64.375625 8.465625 64.375625 11.9375 64.3125 C15.8046875 64.2421875 15.8046875 64.2421875 19.0625 64.4375 C21.0625 66.4375 21.0625 66.4375 21.3125 69.4375 C21.0625 72.4375 21.0625 72.4375 19.0625 74.4375 C16.21709858 74.63740227 13.47112216 74.71726976 10.625 74.703125 C9.78912354 74.70503845 8.95324707 74.7069519 8.09204102 74.70892334 C6.32340189 74.71028536 4.55475277 74.70658776 2.78613281 74.69824219 C0.07334006 74.68754275 -2.63879044 74.69813676 -5.3515625 74.7109375 C-7.0677098 74.70961591 -8.78385669 74.70705352 -10.5 74.703125 C-11.7219104 74.70919769 -11.7219104 74.70919769 -12.96850586 74.71539307 C-18.70758072 74.66741928 -18.70758072 74.66741928 -20.9375 72.4375 C-21.1875 69.4375 -21.1875 69.4375 -20.9375 66.4375 C-18.9375 64.4375 -18.9375 64.4375 -15.6796875 64.2421875 C-13.76542969 64.27699219 -13.76542969 64.27699219 -11.8125 64.3125 C-9.89050781 64.33957031 -9.89050781 64.33957031 -7.9296875 64.3671875 C-6.94226563 64.39039063 -5.95484375 64.41359375 -4.9375 64.4375 C-4.94194122 63.6652005 -4.94638245 62.892901 -4.95095825 62.09719849 C-4.99099004 54.82805363 -5.02146143 47.55896202 -5.04112434 40.28973579 C-5.05157298 36.5523217 -5.0657517 32.8149985 -5.08837891 29.07763672 C-5.11006904 25.472595 -5.12206049 21.86764083 -5.12725449 18.26253891 C-5.13095716 16.88538102 -5.13818734 15.50822806 -5.14896011 14.13110733 C-5.16342335 12.20610455 -5.16431648 10.28101413 -5.16455078 8.35595703 C-5.168992 7.25897491 -5.17343323 6.1619928 -5.17800903 5.0317688 C-4.82153556 1.18664078 -3.75109795 0.55867416 0 0 Z " fill="#FFFFFF" transform="translate(137.9375,150.5625)"/>
</svg>
