<?xml version="1.0" encoding="UTF-8"?>
<!DOCTYPE svg PUBLIC "-//W3C//DTD SVG 1.1//EN" "http://www.w3.org/Graphics/SVG/1.1/DTD/svg11.dtd">
<svg xmlns="http://www.w3.org/2000/svg" version="1.1" width="100px" height="100px" style="shape-rendering:geometricPrecision; text-rendering:geometricPrecision; image-rendering:optimizeQuality; fill-rule:evenodd; clip-rule:evenodd" xmlns:xlink="http://www.w3.org/1999/xlink">
<g><path style="opacity:0.927" fill="#a1a0a0" d="M 39.5,3.5 C 56.5181,0.706054 71.0181,5.37272 83,17.5C 83.3333,13.8333 83.6667,10.1667 84,6.5C 86.0483,4.21303 88.2149,4.04636 90.5,6C 91.4832,14.4149 91.8166,22.9149 91.5,31.5C 83.16,31.6664 74.8267,31.4997 66.5,31C 63.8333,28.6667 63.8333,26.3333 66.5,24C 69.5,23.6667 72.5,23.3333 75.5,23C 65.966,13.7807 54.6327,10.4474 41.5,13C 19.7788,19.9311 10.2788,34.7644 13,57.5C 22.3694,83.414 40.2027,91.914 66.5,83C 79.9562,74.5941 87.1229,62.4274 88,46.5C 90.0483,44.213 92.2149,44.0464 94.5,46C 96.0779,69.4764 85.7445,85.4764 63.5,94C 33.4427,99.8941 13.6094,88.3941 4,59.5C 0.672469,31.0314 12.5058,12.3647 39.5,3.5 Z"/></g>
</svg>
