<?xml version="1.0" encoding="UTF-8"?>
<!DOCTYPE svg PUBLIC "-//W3C//DTD SVG 1.1//EN" "http://www.w3.org/Graphics/SVG/1.1/DTD/svg11.dtd">
<svg xmlns="http://www.w3.org/2000/svg" version="1.1" width="100px" height="100px" style="shape-rendering:geometricPrecision; text-rendering:geometricPrecision; image-rendering:optimizeQuality; fill-rule:evenodd; clip-rule:evenodd" xmlns:xlink="http://www.w3.org/1999/xlink">
<g><path style="opacity:0.918" fill="#fefffe" d="M 40.5,-0.5 C 46.5,-0.5 52.5,-0.5 58.5,-0.5C 58.5,13.1667 58.5,26.8333 58.5,40.5C 63.2137,40.1734 67.8804,40.5067 72.5,41.5C 65.1872,52.1389 57.5206,62.4723 49.5,72.5C 41.4794,62.4723 33.8128,52.1389 26.5,41.5C 31.1196,40.5067 35.7863,40.1734 40.5,40.5C 40.5,26.8333 40.5,13.1667 40.5,-0.5 Z"/></g>
<g><path style="opacity:0.926" fill="#fefffe" d="M -0.5,90.5 C 32.8333,90.5 66.1667,90.5 99.5,90.5C 99.5,93.5 99.5,96.5 99.5,99.5C 66.1667,99.5 32.8333,99.5 -0.5,99.5C -0.5,96.5 -0.5,93.5 -0.5,90.5 Z"/></g>
</svg>
