<?xml version="1.0" encoding="UTF-8"?>
<!DOCTYPE svg PUBLIC "-//W3C//DTD SVG 1.1//EN" "http://www.w3.org/Graphics/SVG/1.1/DTD/svg11.dtd">
<svg xmlns="http://www.w3.org/2000/svg" version="1.1" width="100px" height="100px" style="shape-rendering:geometricPrecision; text-rendering:geometricPrecision; image-rendering:optimizeQuality; fill-rule:evenodd; clip-rule:evenodd" xmlns:xlink="http://www.w3.org/1999/xlink">
<g><path style="opacity:0.984" fill="#a2a0a0" d="M 5.5,3.5 C 34.8333,3.5 64.1667,3.5 93.5,3.5C 93.665,6.8499 93.4983,10.1832 93,13.5C 82.5,24.6667 72,35.8333 61.5,47C 53.5,47.6667 45.5,47.6667 37.5,47C 27,35.8333 16.5,24.6667 6,13.5C 5.50166,10.1832 5.33499,6.8499 5.5,3.5 Z"/></g>
<g><path style="opacity:0.987" fill="#a1a0a0" d="M 37.5,51.5 C 45.5,51.5 53.5,51.5 61.5,51.5C 61.5,66.1667 61.5,80.8333 61.5,95.5C 59.8008,95.6602 58.1341,95.4935 56.5,95C 50.2494,91.2919 44.0827,87.4586 38,83.5C 37.5002,72.8385 37.3335,62.1719 37.5,51.5 Z"/></g>
</svg>
