<?xml version="1.0" encoding="UTF-8"?>
<!DOCTYPE svg PUBLIC "-//W3C//DTD SVG 1.1//EN" "http://www.w3.org/Graphics/SVG/1.1/DTD/svg11.dtd">
<svg xmlns="http://www.w3.org/2000/svg" version="1.1" width="100px" height="100px" style="shape-rendering:geometricPrecision; text-rendering:geometricPrecision; image-rendering:optimizeQuality; fill-rule:evenodd; clip-rule:evenodd" xmlns:xlink="http://www.w3.org/1999/xlink">
<g><path style="opacity:0.924" fill="#fefffe" d="M 20.5,7.5 C 33.1711,7.33345 45.8377,7.50012 58.5,8C 66.6667,16.1667 74.8333,24.3333 83,32.5C 83.498,35.4816 83.6646,38.4816 83.5,41.5C 80.5,41.5 77.5,41.5 74.5,41.5C 74.5,40.1667 74.5,38.8333 74.5,37.5C 67.5,37.5 60.5,37.5 53.5,37.5C 53.5,30.5 53.5,23.5 53.5,16.5C 43.8333,16.5 34.1667,16.5 24.5,16.5C 24.5,38.5 24.5,60.5 24.5,82.5C 34.1896,82.1682 43.8563,82.5016 53.5,83.5C 54.7787,86.1117 56.4453,88.4451 58.5,90.5C 45.8465,91.666 33.1798,91.8326 20.5,91C 18.2739,89.7727 16.7739,87.9393 16,85.5C 15.3333,61.5 15.3333,37.5 16,13.5C 16.9793,11.0324 18.4793,9.03244 20.5,7.5 Z"/></g>
<g><path style="opacity:0.878" fill="#fefffe" d="M 99.5,63.5 C 99.5,67.8333 99.5,72.1667 99.5,76.5C 96.8497,83.982 91.6831,88.982 84,91.5C 83.5026,94.146 83.3359,96.8127 83.5,99.5C 80.1667,99.5 76.8333,99.5 73.5,99.5C 73.6641,96.8127 73.4974,94.146 73,91.5C 57.5094,84.3672 53.5094,73.0339 61,57.5C 70.0504,47.9537 80.2171,46.4537 91.5,53C 95.0368,55.94 97.7035,59.44 99.5,63.5 Z M 74.5,58.5 C 85.4929,57.661 90.6596,62.661 90,73.5C 86.0399,82.067 79.8732,84.2337 71.5,80C 64.3003,71.6973 65.3003,64.5307 74.5,58.5 Z"/></g>
</svg>
