<?xml version="1.0" encoding="UTF-8"?>
<!DOCTYPE svg PUBLIC "-//W3C//DTD SVG 1.1//EN" "http://www.w3.org/Graphics/SVG/1.1/DTD/svg11.dtd">
<svg xmlns="http://www.w3.org/2000/svg" version="1.1" width="100px" height="100px" style="shape-rendering:geometricPrecision; text-rendering:geometricPrecision; image-rendering:optimizeQuality; fill-rule:evenodd; clip-rule:evenodd" xmlns:xlink="http://www.w3.org/1999/xlink">
<g><path style="opacity:0.987" fill="#fefffe" d="M 15.5,7.5 C 38.1667,7.5 60.8333,7.5 83.5,7.5C 83.5,35.5 83.5,63.5 83.5,91.5C 72.8333,91.5 62.1667,91.5 51.5,91.5C 51.5,93.5 51.5,95.5 51.5,97.5C 50.1266,97.6567 48.7932,97.49 47.5,97C 45.6061,95.5962 43.6061,94.4295 41.5,93.5C 39.3939,94.4295 37.3939,95.5962 35.5,97C 34.2068,97.49 32.8734,97.6567 31.5,97.5C 31.5,95.5 31.5,93.5 31.5,91.5C 26.1667,91.5 20.8333,91.5 15.5,91.5C 15.5,63.5 15.5,35.5 15.5,7.5 Z M 29.5,31.5 C 42.8333,31.5 56.1667,31.5 69.5,31.5C 69.5,32.8333 69.5,34.1667 69.5,35.5C 56.1667,35.5 42.8333,35.5 29.5,35.5C 29.5,34.1667 29.5,32.8333 29.5,31.5 Z M 29.5,43.5 C 42.8333,43.5 56.1667,43.5 69.5,43.5C 69.5,44.8333 69.5,46.1667 69.5,47.5C 56.1667,47.5 42.8333,47.5 29.5,47.5C 29.5,46.1667 29.5,44.8333 29.5,43.5 Z M 39.5,60.5 C 42.4359,61.4058 45.4359,62.0725 48.5,62.5C 50.0361,65.9843 50.7027,69.4843 50.5,73C 44.6643,80.1479 38.6643,80.3145 32.5,73.5C 32.1673,69.7645 32.834,66.0978 34.5,62.5C 36.7812,62.9227 38.4479,62.256 39.5,60.5 Z M 35.5,83.5 C 39.5,83.5 43.5,83.5 47.5,83.5C 47.6633,85.8568 47.4966,88.1902 47,90.5C 43.3333,86.5 39.6667,86.5 36,90.5C 35.5034,88.1902 35.3367,85.8568 35.5,83.5 Z"/></g>
</svg>
