<?xml version="1.0" encoding="UTF-8"?>
<!DOCTYPE svg PUBLIC "-//W3C//DTD SVG 1.1//EN" "http://www.w3.org/Graphics/SVG/1.1/DTD/svg11.dtd">
<svg xmlns="http://www.w3.org/2000/svg" version="1.1" width="64px" height="64px" style="shape-rendering:geometricPrecision; text-rendering:geometricPrecision; image-rendering:optimizeQuality; fill-rule:evenodd; clip-rule:evenodd" xmlns:xlink="http://www.w3.org/1999/xlink">
<g><path style="opacity:0.832" fill="#fefffe" d="M 27.5,3.5 C 30.1873,3.33591 32.854,3.50258 35.5,4C 36.3567,4.68909 37.0233,5.52242 37.5,6.5C 43.4632,7.49592 49.4632,7.82925 55.5,7.5C 55.0849,12.3401 55.7516,17.0068 57.5,21.5C 57.4712,23.0293 56.8045,24.196 55.5,25C 56.9308,25.4652 58.0975,26.2986 59,27.5C 61.1667,36 58,39.1667 49.5,37C 48.2986,36.0975 47.4652,34.9308 47,33.5C 44.5974,36.0808 42.0974,36.0808 39.5,33.5C 37.1667,35.1667 35.1667,37.1667 33.5,39.5C 36.0808,42.0974 36.0808,44.5974 33.5,47C 34.9308,47.4652 36.0975,48.2986 37,49.5C 39.1667,58 36,61.1667 27.5,59C 25.4963,56.1592 24.9963,52.9926 26,49.5C 26.9025,48.2986 28.0692,47.4652 29.5,47C 26.9192,44.5974 26.9192,42.0974 29.5,39.5C 27.8391,37.6653 26.3391,35.6653 25,33.5C 22.5974,36.0808 20.0974,36.0808 17.5,33.5C 14.367,37.24 10.367,38.4067 5.5,37C 0.833333,28 3.5,24.3333 13.5,26C 15.557,29.8654 18.2236,30.3654 21.5,27.5C 23.0293,27.5288 24.196,28.1955 25,29.5C 26.3391,27.3347 27.8391,25.3347 29.5,23.5C 26.9192,20.9026 26.9192,18.4026 29.5,16C 26.3171,14.9817 24.9838,12.815 25.5,9.5C 25.3631,7.15949 26.0298,5.15949 27.5,3.5 Z M 30.5,8.5 C 32.337,8.63945 32.6704,9.30612 31.5,10.5C 30.7025,10.0431 30.3691,9.37644 30.5,8.5 Z M 37.5,11.5 C 42.1667,11.5 46.8333,11.5 51.5,11.5C 51.7854,15.0248 51.1187,18.3582 49.5,21.5C 49.5288,23.0293 50.1955,24.196 51.5,25C 49.3333,25.8333 47.8333,27.3333 47,29.5C 44.5974,26.9192 42.0974,26.9192 39.5,29.5C 37.1667,27.8333 35.1667,25.8333 33.5,23.5C 36.0808,20.9026 36.0808,18.4026 33.5,16C 35.751,15.2525 37.0844,13.7525 37.5,11.5 Z M 8.5,30.5 C 10.337,30.6395 10.6704,31.3061 9.5,32.5C 8.70245,32.0431 8.36912,31.3764 8.5,30.5 Z M 30.5,30.5 C 32.337,30.6395 32.6704,31.3061 31.5,32.5C 30.7025,32.0431 30.3691,31.3764 30.5,30.5 Z M 52.5,30.5 C 54.337,30.6395 54.6704,31.3061 53.5,32.5C 52.7025,32.0431 52.3691,31.3764 52.5,30.5 Z M 30.5,52.5 C 32.337,52.6395 32.6704,53.3061 31.5,54.5C 30.7025,54.0431 30.3691,53.3764 30.5,52.5 Z"/></g>
</svg>
