<?xml version="1.0" encoding="UTF-8"?>
<!DOCTYPE svg PUBLIC "-//W3C//DTD SVG 1.1//EN" "http://www.w3.org/Graphics/SVG/1.1/DTD/svg11.dtd">
<svg xmlns="http://www.w3.org/2000/svg" version="1.1" width="100px" height="100px" style="shape-rendering:geometricPrecision; text-rendering:geometricPrecision; image-rendering:optimizeQuality; fill-rule:evenodd; clip-rule:evenodd" xmlns:xlink="http://www.w3.org/1999/xlink">
<g><path style="opacity:0.962" fill="#fefffe" d="M 84.5,7.5 C 88.6034,6.7691 92.1034,7.7691 95,10.5C 95.6667,34.5 95.6667,58.5 95,82.5C 92.8212,85.5378 90.6546,88.5378 88.5,91.5C 86.3454,88.5378 84.1788,85.5378 82,82.5C 81.3333,58.5 81.3333,34.5 82,10.5C 83.045,9.62656 83.8783,8.62656 84.5,7.5 Z M 86.5,12.5 C 90.1507,12.1617 91.8174,13.8284 91.5,17.5C 89.5,17.5 87.5,17.5 85.5,17.5C 85.6287,15.7839 85.962,14.1172 86.5,12.5 Z M 85.5,78.5 C 87.2884,77.3775 89.2884,77.2109 91.5,78C 89.6777,82.4345 87.6777,82.6012 85.5,78.5 Z"/></g>
<g><path style="opacity:0.882" fill="#fefffe" d="M 36.5,11.5 C 38.5273,11.3379 40.5273,11.5045 42.5,12C 54.0745,17.0379 65.5745,22.2046 77,27.5C 77.6667,28.8333 77.6667,30.1667 77,31.5C 72.7451,34.3775 68.5784,37.3775 64.5,40.5C 63.6786,37.5535 63.1786,34.5535 63,31.5C 61.992,29.741 60.492,28.5743 58.5,28C 45.8333,24.6667 33.1667,24.6667 20.5,28C 18.508,28.5743 17.008,29.741 16,31.5C 16.8962,41.5739 14.2296,42.9073 8,35.5C 7.12146,40.3869 7.62146,45.0536 9.5,49.5C 6.83333,60.1667 4.16667,60.1667 1.5,49.5C 2.95235,46.2246 3.61901,42.7246 3.5,39C 3.4027,34.965 2.9027,31.1317 2,27.5C 13.6353,22.263 25.1353,16.9297 36.5,11.5 Z"/></g>
<g><path style="opacity:0.944" fill="#fefffe" d="M 24.5,29.5 C 35.8965,29.0907 47.2298,29.5907 58.5,31C 59.6219,34.4085 59.7886,37.9085 59,41.5C 57.6012,42.2266 56.1012,42.7266 54.5,43C 43.108,43.9091 31.7747,43.5757 20.5,42C 19.3781,38.5915 19.2114,35.0915 20,31.5C 21.6225,30.9011 23.1225,30.2344 24.5,29.5 Z"/></g>
<g><path style="opacity:0.955" fill="#fefffe" d="M 16.5,45.5 C 24.2223,45.7605 31.889,46.4272 39.5,47.5C 52.0903,45.8918 64.757,45.2251 77.5,45.5C 76.188,48.354 75.188,51.354 74.5,54.5C 75.188,57.646 76.188,60.646 77.5,63.5C 57.1639,63.6666 36.8306,63.5 16.5,63C 12.9158,61.3362 11.2492,58.5029 11.5,54.5C 11.3769,50.4052 13.0435,47.4052 16.5,45.5 Z"/></g>
<g><path style="opacity:0.976" fill="#fefffe" d="M 16.5,67.5 C 36.8333,67.5 57.1667,67.5 77.5,67.5C 76.188,70.354 75.188,73.354 74.5,76.5C 75.188,79.646 76.188,82.646 77.5,85.5C 57.1639,85.6666 36.8306,85.5 16.5,85C 12.765,83.2003 11.0983,80.2003 11.5,76C 11.3082,72.0348 12.9749,69.2015 16.5,67.5 Z"/></g>
</svg>
