<?xml version="1.0" encoding="UTF-8"?>
<!DOCTYPE svg PUBLIC "-//W3C//DTD SVG 1.1//EN" "http://www.w3.org/Graphics/SVG/1.1/DTD/svg11.dtd">
<svg xmlns="http://www.w3.org/2000/svg" version="1.1" width="96px" height="96px" style="shape-rendering:geometricPrecision; text-rendering:geometricPrecision; image-rendering:optimizeQuality; fill-rule:evenodd; clip-rule:evenodd" xmlns:xlink="http://www.w3.org/1999/xlink">
<g><path style="opacity:1" fill="#fefdfc" d="M 35.5,11.5 C 43.5,11.5 51.5,11.5 59.5,11.5C 59.5,19.5 59.5,27.5 59.5,35.5C 56.8333,35.5 54.1667,35.5 51.5,35.5C 51.5,38.1667 51.5,40.8333 51.5,43.5C 59.5,43.5 67.5,43.5 75.5,43.5C 75.5,48.8333 75.5,54.1667 75.5,59.5C 78.1667,59.5 80.8333,59.5 83.5,59.5C 83.5,67.5 83.5,75.5 83.5,83.5C 75.5,83.5 67.5,83.5 59.5,83.5C 59.5,75.5 59.5,67.5 59.5,59.5C 62.1667,59.5 64.8333,59.5 67.5,59.5C 67.5,56.8333 67.5,54.1667 67.5,51.5C 54.1667,51.5 40.8333,51.5 27.5,51.5C 27.5,54.1667 27.5,56.8333 27.5,59.5C 30.1667,59.5 32.8333,59.5 35.5,59.5C 35.5,67.5 35.5,75.5 35.5,83.5C 27.5,83.5 19.5,83.5 11.5,83.5C 11.5,75.5 11.5,67.5 11.5,59.5C 14.1667,59.5 16.8333,59.5 19.5,59.5C 19.5,54.1667 19.5,48.8333 19.5,43.5C 27.5,43.5 35.5,43.5 43.5,43.5C 43.5,40.8333 43.5,38.1667 43.5,35.5C 40.8333,35.5 38.1667,35.5 35.5,35.5C 35.5,27.5 35.5,19.5 35.5,11.5 Z"/></g>
</svg>
