<?xml version="1.0" encoding="UTF-8"?>
<!DOCTYPE svg PUBLIC "-//W3C//DTD SVG 1.1//EN" "http://www.w3.org/Graphics/SVG/1.1/DTD/svg11.dtd">
<svg xmlns="http://www.w3.org/2000/svg" version="1.1" width="100px" height="100px" style="shape-rendering:geometricPrecision; text-rendering:geometricPrecision; image-rendering:optimizeQuality; fill-rule:evenodd; clip-rule:evenodd" xmlns:xlink="http://www.w3.org/1999/xlink">
<g><path style="opacity:0.912" fill="#fffdfd" d="M 15.5,1.5 C 22.0103,0.174092 25.5103,2.84076 26,9.5C 49.3793,-1.88321 69.7126,2.11679 87,21.5C 95.0157,32.9817 97.6824,45.6483 95,59.5C 86.4428,86.7027 67.9428,98.5361 39.5,95C 12.2973,86.4428 0.463923,67.9428 4,39.5C 5.57968,33.0081 8.24635,27.0081 12,21.5C 12.3333,15.8333 12.6667,10.1667 13,4.5C 13.6979,3.30943 14.5313,2.30943 15.5,1.5 Z M 17.5,6.5 C 18.4959,6.41423 19.3292,6.74756 20,7.5C 20.3333,11.5 20.6667,15.5 21,19.5C 38.5418,4.90522 56.7084,4.07189 75.5,17C 92.1986,33.285 95.032,51.785 84,72.5C 71.1698,89.1088 54.6698,94.2755 34.5,88C 10.9795,75.7744 3.31281,56.9411 11.5,31.5C 12.5,31.5 13.5,31.5 14.5,31.5C 6.90604,51.8683 11.5727,68.7017 28.5,82C 49.5358,92.4461 67.3691,88.6128 82,70.5C 91.7027,51.1686 88.8693,34.0019 73.5,19C 55.7165,7.35261 38.7165,8.35261 22.5,22C 26.8333,22.3333 31.1667,22.6667 35.5,23C 36.8333,23.6667 36.8333,24.3333 35.5,25C 29.5092,25.4995 23.5092,25.6662 17.5,25.5C 17.5,19.1667 17.5,12.8333 17.5,6.5 Z M 47.5,17.5 C 48.8333,17.5 50.1667,17.5 51.5,17.5C 51.4245,28.8782 51.5912,40.2115 52,51.5C 50.6012,52.2266 49.1012,52.7266 47.5,53C 43.3184,57.3487 38.9851,61.5154 34.5,65.5C 33.479,64.9984 33.3123,64.3317 34,63.5C 38,59.5 42,55.5 46,51.5C 47.4093,40.2298 47.9093,28.8965 47.5,17.5 Z"/></g>
</svg>
