<?xml version="1.0" encoding="UTF-8"?>
<!DOCTYPE svg PUBLIC "-//W3C//DTD SVG 1.1//EN" "http://www.w3.org/Graphics/SVG/1.1/DTD/svg11.dtd">
<svg xmlns="http://www.w3.org/2000/svg" version="1.1" width="100px" height="100px" style="shape-rendering:geometricPrecision; text-rendering:geometricPrecision; image-rendering:optimizeQuality; fill-rule:evenodd; clip-rule:evenodd" xmlns:xlink="http://www.w3.org/1999/xlink">
<g><path style="opacity:0.933" fill="#fefffe" d="M 18.5,9.5 C 39.1694,9.33338 59.836,9.50004 80.5,10C 81.7014,10.9025 82.5348,12.0692 83,13.5C 83.4999,28.8297 83.6666,44.163 83.5,59.5C 76.4112,59.1156 69.4112,59.6156 62.5,61C 60.6275,64.6267 59.1275,68.4601 58,72.5C 52.3333,77.8333 46.6667,77.8333 41,72.5C 40.1168,68.3799 38.6168,64.5466 36.5,61C 29.5888,59.6156 22.5888,59.1156 15.5,59.5C 15.3334,44.163 15.5001,28.8297 16,13.5C 16.6622,12.0161 17.4955,10.6828 18.5,9.5 Z M 46.5,19.5 C 53.8761,19.2743 61.2094,19.6076 68.5,20.5C 68.7135,22.1439 68.3802,23.6439 67.5,25C 59.8333,25.6667 52.1667,25.6667 44.5,25C 43.0804,22.4264 43.747,20.593 46.5,19.5 Z M 30.5,20.5 C 34.1378,19.7366 35.6378,21.0699 35,24.5C 31.3307,26.0093 29.8307,24.6759 30.5,20.5 Z M 31.5,33.5 C 35.1612,33.3501 36.1612,34.8501 34.5,38C 33.2068,38.49 31.8734,38.6567 30.5,38.5C 30.366,36.7085 30.6993,35.0418 31.5,33.5 Z M 44.5,33.5 C 52.1739,33.3336 59.8406,33.5003 67.5,34C 68.3802,35.3561 68.7135,36.8561 68.5,38.5C 61.2025,39.5591 53.8692,39.7257 46.5,39C 43.5409,37.9543 42.8742,36.1209 44.5,33.5 Z M 31.5,46.5 C 36.1972,47.8743 36.5305,49.8743 32.5,52.5C 30.261,50.8669 29.9277,48.8669 31.5,46.5 Z M 45.5,46.5 C 52.8409,46.3337 60.1742,46.5003 67.5,47C 68.8333,48.6667 68.8333,50.3333 67.5,52C 60.1667,52.6667 52.8333,52.6667 45.5,52C 42.9824,50.1899 42.9824,48.3566 45.5,46.5 Z"/></g>
<g><path style="opacity:0.956" fill="#fefffe" d="M 81.5,99.5 C 60.1667,99.5 38.8333,99.5 17.5,99.5C 14.5282,97.3589 12.0282,94.6922 10,91.5C 9.33333,83.8333 9.33333,76.1667 10,68.5C 10.9025,67.2986 12.0692,66.4652 13.5,66C 19.5,65.3333 25.5,65.3333 31.5,66C 33.5673,70.1318 35.9007,74.1318 38.5,78C 45.244,83.512 52.244,83.8454 59.5,79C 63.0907,75.2165 65.7574,70.8831 67.5,66C 74.276,65.0804 80.9427,65.4137 87.5,67C 89.0037,68.4907 89.8371,70.324 90,72.5C 90.9874,79.6847 90.3208,86.6847 88,93.5C 86.086,95.8565 83.9193,97.8565 81.5,99.5 Z"/></g>
</svg>
