<?xml version="1.0" encoding="UTF-8"?>
<!DOCTYPE svg PUBLIC "-//W3C//DTD SVG 1.1//EN" "http://www.w3.org/Graphics/SVG/1.1/DTD/svg11.dtd">
<svg xmlns="http://www.w3.org/2000/svg" version="1.1" width="100px" height="100px" style="shape-rendering:geometricPrecision; text-rendering:geometricPrecision; image-rendering:optimizeQuality; fill-rule:evenodd; clip-rule:evenodd" xmlns:xlink="http://www.w3.org/1999/xlink">
<g><path style="opacity:0.982" fill="#fefffe" d="M 39.5,3.5 C 51.5046,3.33346 63.5046,3.50013 75.5,4C 82,10.5 88.5,17 95,23.5C 95.4999,42.1637 95.6666,60.8304 95.5,79.5C 84.8333,79.5 74.1667,79.5 63.5,79.5C 63.5,74.1667 63.5,68.8333 63.5,63.5C 70.1667,63.5 76.8333,63.5 83.5,63.5C 83.5,62.1667 83.5,60.8333 83.5,59.5C 76.8333,59.5 70.1667,59.5 63.5,59.5C 63.5,56.8333 63.5,54.1667 63.5,51.5C 67.5,51.5 71.5,51.5 75.5,51.5C 75.5,50.1667 75.5,48.8333 75.5,47.5C 71.5,47.5 67.5,47.5 63.5,47.5C 63.5,44.8333 63.5,42.1667 63.5,39.5C 70.1667,39.5 76.8333,39.5 83.5,39.5C 83.5,38.1667 83.5,36.8333 83.5,35.5C 75.5803,35.185 67.747,35.5183 60,36.5C 53.3333,29.8333 46.6667,23.1667 40,16.5C 39.501,12.1794 39.3343,7.84611 39.5,3.5 Z M 73.5,9.5 C 78.9647,14.4636 84.298,19.6303 89.5,25C 84.1771,25.4994 78.8437,25.666 73.5,25.5C 73.5,20.1667 73.5,14.8333 73.5,9.5 Z"/></g>
<g><path style="opacity:0.993" fill="#fefffe" d="M 3.5,19.5 C 15.5046,19.3335 27.5046,19.5001 39.5,20C 46,26.5 52.5,33 59,39.5C 59.4999,58.1637 59.6666,76.8304 59.5,95.5C 40.8333,95.5 22.1667,95.5 3.5,95.5C 3.5,70.1667 3.5,44.8333 3.5,19.5 Z M 37.5,25.5 C 42.9647,30.4636 48.298,35.6303 53.5,41C 48.1771,41.4994 42.8437,41.666 37.5,41.5C 37.5,36.1667 37.5,30.8333 37.5,25.5 Z M 15.5,51.5 C 26.1667,51.5 36.8333,51.5 47.5,51.5C 47.5,52.8333 47.5,54.1667 47.5,55.5C 36.8333,55.5 26.1667,55.5 15.5,55.5C 15.5,54.1667 15.5,52.8333 15.5,51.5 Z M 15.5,63.5 C 23.5,63.5 31.5,63.5 39.5,63.5C 39.5,64.8333 39.5,66.1667 39.5,67.5C 31.5,67.5 23.5,67.5 15.5,67.5C 15.5,66.1667 15.5,64.8333 15.5,63.5 Z M 15.5,75.5 C 26.1667,75.5 36.8333,75.5 47.5,75.5C 47.5,76.8333 47.5,78.1667 47.5,79.5C 36.8333,79.5 26.1667,79.5 15.5,79.5C 15.5,78.1667 15.5,76.8333 15.5,75.5 Z"/></g>
</svg>
