<?xml version="1.0" encoding="UTF-8"?>
<!DOCTYPE svg PUBLIC "-//W3C//DTD SVG 1.1//EN" "http://www.w3.org/Graphics/SVG/1.1/DTD/svg11.dtd">
<svg xmlns="http://www.w3.org/2000/svg" version="1.1" width="100px" height="100px" style="shape-rendering:geometricPrecision; text-rendering:geometricPrecision; image-rendering:optimizeQuality; fill-rule:evenodd; clip-rule:evenodd" xmlns:xlink="http://www.w3.org/1999/xlink">
<g><path style="opacity:0.949" fill="#fefffe" d="M 18.5,9.5 C 33.5037,9.33342 48.5037,9.50008 63.5,10C 66.1856,12.5463 67.1856,15.713 66.5,19.5C 58.4931,19.3336 50.4931,19.5003 42.5,20C 34.5341,20.9663 30.3675,25.4663 30,33.5C 29.5002,42.4938 29.3336,51.4938 29.5,60.5C 26.5,60.5 23.5,60.5 20.5,60.5C 20.2865,62.1439 20.6198,63.6439 21.5,65C 24.146,65.4974 26.8127,65.6641 29.5,65.5C 29.5,68.1667 29.5,70.8333 29.5,73.5C 21.7539,75.1017 16.2539,72.435 13,65.5C 12.3333,48.8333 12.3333,32.1667 13,15.5C 14.3597,12.9774 16.193,10.9774 18.5,9.5 Z"/></g>
<g><path style="opacity:0.95" fill="#fefffe" d="M 43.5,25.5 C 57.504,25.3334 71.504,25.5001 85.5,26C 86.9308,26.4652 88.0975,27.2986 89,28.5C 89.6667,43.5 89.6667,58.5 89,73.5C 88.1667,74.3333 87.3333,75.1667 86.5,76C 72.8333,76.3333 59.1667,76.6667 45.5,77C 42.8333,78.6667 42.8333,80.3333 45.5,82C 59.8333,82.3333 74.1667,82.6667 88.5,83C 89.1667,84 89.8333,85 90.5,86C 89.6634,87.0113 89.33,88.1779 89.5,89.5C 73.4965,89.6666 57.4965,89.4999 41.5,89C 38.8941,87.0616 37.0608,84.5616 36,81.5C 35.3333,65.5 35.3333,49.5 36,33.5C 37.3532,29.6499 39.8532,26.9832 43.5,25.5 Z M 53.5,39.5 C 59.8421,39.3338 66.1754,39.5005 72.5,40C 75.3463,40.8793 76.013,42.5459 74.5,45C 66.8333,45.6667 59.1667,45.6667 51.5,45C 50.6198,43.6439 50.2865,42.1439 50.5,40.5C 51.791,40.7373 52.791,40.404 53.5,39.5 Z"/></g>
</svg>
