<?xml version="1.0" encoding="UTF-8"?>
<!DOCTYPE svg PUBLIC "-//W3C//DTD SVG 1.1//EN" "http://www.w3.org/Graphics/SVG/1.1/DTD/svg11.dtd">
<svg xmlns="http://www.w3.org/2000/svg" version="1.1" width="100px" height="100px" style="shape-rendering:geometricPrecision; text-rendering:geometricPrecision; image-rendering:optimizeQuality; fill-rule:evenodd; clip-rule:evenodd" xmlns:xlink="http://www.w3.org/1999/xlink">
<g><path style="opacity:0.907" fill="#fefffe" d="M 18.5,3.5 C 30.3244,1.8236 35.1577,6.8236 33,18.5C 29.3449,23.2745 24.5116,24.7745 18.5,23C 13.7255,19.3449 12.2255,14.5116 14,8.5C 15.3657,6.63834 16.8657,4.97167 18.5,3.5 Z"/></g>
<g><path style="opacity:0.99" fill="#fefffe" d="M 57.5,3.5 C 58.8333,3.5 60.1667,3.5 61.5,3.5C 61.5,4.83333 61.5,6.16667 61.5,7.5C 72.8333,7.5 84.1667,7.5 95.5,7.5C 95.5,27.5 95.5,47.5 95.5,67.5C 76.8333,67.5 58.1667,67.5 39.5,67.5C 39.5,58.1667 39.5,48.8333 39.5,39.5C 46.5736,39.839 53.5736,39.339 60.5,38C 65.8333,33 65.8333,28 60.5,23C 51.8939,21.79 43.2273,21.1234 34.5,21C 36.6853,16.8131 37.0186,12.4797 35.5,8C 42.8258,7.50034 50.1591,7.33368 57.5,7.5C 57.5,6.16667 57.5,4.83333 57.5,3.5 Z"/></g>
<g><path style="opacity:0.973" fill="#fefffe" d="M 9.5,25.5 C 12.1873,25.3359 14.854,25.5026 17.5,26C 19.4015,29.8601 21.4015,33.6935 23.5,37.5C 25.754,33.9934 27.754,30.3267 29.5,26.5C 39.4834,25.3344 49.4834,25.1678 59.5,26C 62.1667,29 62.1667,32 59.5,35C 51.5069,35.4997 43.5069,35.6664 35.5,35.5C 35.6666,55.1695 35.5,74.8362 35,94.5C 31.76,96.0363 28.76,95.703 26,93.5C 25,58.8333 24,58.8333 23,93.5C 20.5027,95.4782 17.6693,95.9782 14.5,95C 13.8395,76.8976 13.1729,58.731 12.5,40.5C 11.6681,49.1475 11.1681,57.8142 11,66.5C 8.66667,67.8333 6.33333,67.8333 4,66.5C 3.33333,54.8333 3.33333,43.1667 4,31.5C 5.35968,28.9774 7.19301,26.9774 9.5,25.5 Z"/></g>
<g><path style="opacity:0.8" fill="#fefffe" d="M 53.5,71.5 C 55.288,71.2148 56.9547,71.5481 58.5,72.5C 55.8333,77.8333 53.1667,83.1667 50.5,88.5C 48.8333,89.8333 47.1667,89.8333 45.5,88.5C 48.4513,82.9323 51.118,77.2657 53.5,71.5 Z"/></g>
<g><path style="opacity:0.8" fill="#fefffe" d="M 60.5,71.5 C 62.288,71.2148 63.9547,71.5481 65.5,72.5C 68.1667,77.8333 70.8333,83.1667 73.5,88.5C 71.8333,89.8333 70.1667,89.8333 68.5,88.5C 65.5487,82.9323 62.882,77.2657 60.5,71.5 Z"/></g>
</svg>
